<svg width="295" height="238" viewBox="0 0 295 238" fill="none" xmlns="http://www.w3.org/2000/svg">
<path d="M10.4354 24.5H7.47798V15.7727H10.495C11.3615 15.7727 12.1058 15.9474 12.728 16.2969C13.353 16.6435 13.8331 17.142 14.1683 17.7926C14.5036 18.4432 14.6712 19.2216 14.6712 20.1278C14.6712 21.0369 14.5021 21.8182 14.1641 22.4716C13.8288 23.125 13.3445 23.6264 12.7109 23.9759C12.0803 24.3253 11.3217 24.5 10.4354 24.5ZM9.05895 23.1321H10.3587C10.9666 23.1321 11.4737 23.0213 11.88 22.7997C12.2862 22.5753 12.5916 22.2415 12.7962 21.7983C13.0007 21.3523 13.103 20.7955 13.103 20.1278C13.103 19.4602 13.0007 18.9062 12.7962 18.4659C12.5916 18.0227 12.2891 17.6918 11.8885 17.473C11.4908 17.2514 10.9964 17.1406 10.4055 17.1406H9.05895V23.1321ZM18.9602 24.6278C18.321 24.6278 17.767 24.4872 17.2983 24.206C16.8295 23.9247 16.4659 23.5312 16.2074 23.0256C15.9517 22.5199 15.8239 21.929 15.8239 21.2528C15.8239 20.5767 15.9517 19.9844 16.2074 19.4759C16.4659 18.9673 16.8295 18.5724 17.2983 18.2912C17.767 18.0099 18.321 17.8693 18.9602 17.8693C19.5994 17.8693 20.1534 18.0099 20.6222 18.2912C21.0909 18.5724 21.4531 18.9673 21.7088 19.4759C21.9673 19.9844 22.0966 20.5767 22.0966 21.2528C22.0966 21.929 21.9673 22.5199 21.7088 23.0256C21.4531 23.5312 21.0909 23.9247 20.6222 24.206C20.1534 24.4872 19.5994 24.6278 18.9602 24.6278ZM18.9688 23.392C19.3153 23.392 19.6051 23.2969 19.8381 23.1065C20.071 22.9134 20.2443 22.6548 20.358 22.331C20.4744 22.0071 20.5327 21.6463 20.5327 21.2486C20.5327 20.848 20.4744 20.4858 20.358 20.1619C20.2443 19.8352 20.071 19.5753 19.8381 19.3821C19.6051 19.1889 19.3153 19.0923 18.9688 19.0923C18.6136 19.0923 18.3182 19.1889 18.0824 19.3821C17.8494 19.5753 17.6747 19.8352 17.5582 20.1619C17.4446 20.4858 17.3878 20.848 17.3878 21.2486C17.3878 21.6463 17.4446 22.0071 17.5582 22.331C17.6747 22.6548 17.8494 22.9134 18.0824 23.1065C18.3182 23.2969 18.6136 23.392 18.9688 23.392ZM23.4059 24.5V17.9545H24.8803V19.0668H24.957C25.0934 18.6918 25.3192 18.3991 25.6346 18.1889C25.9499 17.9759 26.3263 17.8693 26.7638 17.8693C27.207 17.8693 27.5806 17.9773 27.8846 18.1932C28.1914 18.4062 28.4073 18.6974 28.5323 19.0668H28.6005C28.7454 18.7031 28.9897 18.4134 29.3335 18.1974C29.68 17.9787 30.0906 17.8693 30.565 17.8693C31.1673 17.8693 31.6587 18.0597 32.0394 18.4403C32.4201 18.821 32.6104 19.3764 32.6104 20.1065V24.5H31.0636V20.3452C31.0636 19.9389 30.9556 19.642 30.7397 19.4545C30.5238 19.2642 30.2596 19.169 29.9471 19.169C29.5749 19.169 29.2837 19.2855 29.0735 19.5185C28.8661 19.7486 28.7624 20.0483 28.7624 20.4176V24.5H27.2496V20.2812C27.2496 19.9432 27.1474 19.6733 26.9428 19.4716C26.7411 19.2699 26.4769 19.169 26.1502 19.169C25.9286 19.169 25.7269 19.2259 25.5451 19.3395C25.3633 19.4503 25.2184 19.608 25.1104 19.8125C25.0025 20.0142 24.9485 20.25 24.9485 20.5199V24.5H23.4059Z" fill="white"/>
<path d="M55.9006 18.1719C55.8608 17.7997 55.6932 17.5099 55.3977 17.3026C55.1051 17.0952 54.7244 16.9915 54.2557 16.9915C53.9261 16.9915 53.6435 17.0412 53.4077 17.1406C53.1719 17.2401 52.9915 17.375 52.8665 17.5455C52.7415 17.7159 52.6776 17.9105 52.6747 18.1293C52.6747 18.3111 52.7159 18.4687 52.7983 18.6023C52.8835 18.7358 52.9986 18.8494 53.1435 18.9432C53.2884 19.0341 53.4489 19.1108 53.625 19.1733C53.8011 19.2358 53.9787 19.2884 54.1577 19.331L54.9759 19.5355C55.3054 19.6122 55.6222 19.7159 55.9261 19.8466C56.233 19.9773 56.5071 20.142 56.7486 20.3409C56.9929 20.5398 57.1861 20.7798 57.3281 21.0611C57.4702 21.3423 57.5412 21.6719 57.5412 22.0497C57.5412 22.5611 57.4105 23.0114 57.1491 23.4006C56.8878 23.7869 56.5099 24.0895 56.0156 24.3082C55.5241 24.5241 54.929 24.6321 54.2301 24.6321C53.5511 24.6321 52.9616 24.527 52.4616 24.3168C51.9645 24.1065 51.5753 23.7997 51.294 23.3963C51.0156 22.9929 50.8651 22.5014 50.8423 21.9219H52.3977C52.4205 22.2259 52.5142 22.4787 52.679 22.6804C52.8438 22.8821 53.0582 23.0327 53.3224 23.1321C53.5895 23.2315 53.8878 23.2812 54.2173 23.2812C54.5611 23.2812 54.8622 23.2301 55.1207 23.1278C55.3821 23.0227 55.5866 22.8778 55.7344 22.6932C55.8821 22.5057 55.9574 22.2869 55.9602 22.0369C55.9574 21.8097 55.8906 21.6222 55.7599 21.4744C55.6293 21.3239 55.446 21.1989 55.2102 21.0994C54.9773 20.9972 54.7045 20.9062 54.392 20.8267L53.3991 20.571C52.6804 20.3864 52.1122 20.1065 51.6946 19.7315C51.2798 19.3537 51.0724 18.8523 51.0724 18.2273C51.0724 17.7131 51.2116 17.2628 51.4901 16.8764C51.7713 16.4901 52.1534 16.1903 52.6364 15.9773C53.1193 15.7614 53.6662 15.6534 54.277 15.6534C54.8963 15.6534 55.4389 15.7614 55.9048 15.9773C56.3736 16.1903 56.7415 16.4872 57.0085 16.8679C57.2756 17.2457 57.4134 17.6804 57.4219 18.1719H55.9006ZM61.7802 24.6278C61.1239 24.6278 60.5572 24.4915 60.0799 24.2188C59.6055 23.9432 59.2404 23.554 58.9847 23.0511C58.729 22.5455 58.6012 21.9503 58.6012 21.2656C58.6012 20.5923 58.729 20.0014 58.9847 19.4929C59.2433 18.9815 59.604 18.5838 60.0671 18.2997C60.5302 18.0128 61.0742 17.8693 61.6992 17.8693C62.1026 17.8693 62.4833 17.9347 62.8413 18.0653C63.2021 18.1932 63.5202 18.392 63.7958 18.6619C64.0742 18.9318 64.293 19.2756 64.4521 19.6932C64.6112 20.108 64.6907 20.6023 64.6907 21.1761V21.6491H59.3256V20.6094H63.212C63.2092 20.3139 63.1452 20.0511 63.0202 19.821C62.8952 19.5881 62.7205 19.4048 62.4961 19.2713C62.2745 19.1378 62.016 19.071 61.7205 19.071C61.4052 19.071 61.1282 19.1477 60.8896 19.3011C60.6509 19.4517 60.4648 19.6506 60.3313 19.8977C60.2006 20.142 60.1339 20.4105 60.131 20.7031V21.6108C60.131 21.9915 60.2006 22.3182 60.3398 22.5909C60.479 22.8608 60.6737 23.0682 60.9237 23.2131C61.1737 23.3551 61.4663 23.4261 61.8015 23.4261C62.0259 23.4261 62.229 23.3949 62.4109 23.3324C62.5927 23.267 62.7504 23.1719 62.8839 23.0469C63.0174 22.9219 63.1183 22.767 63.1864 22.5824L64.6268 22.7443C64.5359 23.125 64.3626 23.4574 64.1069 23.7415C63.854 24.0227 63.5302 24.2415 63.1353 24.3977C62.7404 24.5511 62.2887 24.6278 61.7802 24.6278ZM68.8423 27.0909C68.2884 27.0909 67.8125 27.0156 67.4148 26.8651C67.017 26.7173 66.6974 26.5185 66.456 26.2685C66.2145 26.0185 66.0469 25.7415 65.9531 25.4375L67.3423 25.1009C67.4048 25.2287 67.4957 25.3551 67.6151 25.4801C67.7344 25.608 67.8949 25.7131 68.0966 25.7955C68.3011 25.8807 68.5582 25.9233 68.8679 25.9233C69.3054 25.9233 69.6676 25.8168 69.9545 25.6037C70.2415 25.3935 70.3849 25.0469 70.3849 24.5639V23.3239H70.3082C70.2287 23.483 70.1122 23.6463 69.9588 23.8139C69.8082 23.9815 69.608 24.1222 69.358 24.2358C69.1108 24.3494 68.7997 24.4062 68.4247 24.4062C67.9219 24.4062 67.4659 24.2884 67.0568 24.0526C66.6506 23.8139 66.3267 23.4588 66.0852 22.9872C65.8466 22.5128 65.7273 21.919 65.7273 21.206C65.7273 20.4872 65.8466 19.8807 66.0852 19.3864C66.3267 18.8892 66.652 18.5128 67.0611 18.2571C67.4702 17.9986 67.9261 17.8693 68.429 17.8693C68.8125 17.8693 69.1278 17.9347 69.375 18.0653C69.625 18.1932 69.8239 18.348 69.9716 18.5298C70.1193 18.7088 70.2315 18.8778 70.3082 19.0369H70.3935V17.9545H71.9148V24.6065C71.9148 25.1662 71.7813 25.6293 71.5142 25.9957C71.2472 26.3622 70.8821 26.6364 70.419 26.8182C69.956 27 69.4304 27.0909 68.8423 27.0909ZM68.8551 23.196C69.1818 23.196 69.4602 23.1165 69.6903 22.9574C69.9205 22.7983 70.0952 22.5696 70.2145 22.2713C70.3338 21.973 70.3935 21.6151 70.3935 21.1974C70.3935 20.7855 70.3338 20.4247 70.2145 20.1151C70.098 19.8054 69.9247 19.5653 69.6946 19.3949C69.4673 19.2216 69.1875 19.1349 68.8551 19.1349C68.5114 19.1349 68.2244 19.2244 67.9943 19.4034C67.7642 19.5824 67.5909 19.8281 67.4744 20.1406C67.358 20.4503 67.2997 20.8026 67.2997 21.1974C67.2997 21.598 67.358 21.9489 67.4744 22.25C67.5938 22.5483 67.7685 22.7812 67.9986 22.9489C68.2315 23.1136 68.517 23.196 68.8551 23.196Z" fill="white"/>
<path d="M94.0554 16.598V15.2727H101.018V16.598H98.321V24H96.7528V16.598H94.0554ZM104.241 24.1278C103.585 24.1278 103.018 23.9915 102.541 23.7188C102.066 23.4432 101.701 23.054 101.446 22.5511C101.19 22.0455 101.062 21.4503 101.062 20.7656C101.062 20.0923 101.19 19.5014 101.446 18.9929C101.704 18.4815 102.065 18.0838 102.528 17.7997C102.991 17.5128 103.535 17.3693 104.16 17.3693C104.564 17.3693 104.944 17.4347 105.302 17.5653C105.663 17.6932 105.981 17.892 106.257 18.1619C106.535 18.4318 106.754 18.7756 106.913 19.1932C107.072 19.608 107.152 20.1023 107.152 20.6761V21.1491H101.787V20.1094H105.673C105.67 19.8139 105.606 19.5511 105.481 19.321C105.356 19.0881 105.181 18.9048 104.957 18.7713C104.735 18.6378 104.477 18.571 104.181 18.571C103.866 18.571 103.589 18.6477 103.35 18.8011C103.112 18.9517 102.926 19.1506 102.792 19.3977C102.662 19.642 102.595 19.9105 102.592 20.2031V21.1108C102.592 21.4915 102.662 21.8182 102.801 22.0909C102.94 22.3608 103.135 22.5682 103.385 22.7131C103.635 22.8551 103.927 22.9261 104.262 22.9261C104.487 22.9261 104.69 22.8949 104.872 22.8324C105.054 22.767 105.211 22.6719 105.345 22.5469C105.478 22.4219 105.579 22.267 105.647 22.0824L107.088 22.2443C106.997 22.625 106.824 22.9574 106.568 23.2415C106.315 23.5227 105.991 23.7415 105.596 23.8977C105.201 24.0511 104.75 24.1278 104.241 24.1278ZM108.457 24V17.4545H109.952V18.5455H110.021C110.14 18.1676 110.344 17.8764 110.634 17.6719C110.927 17.4645 111.261 17.3608 111.636 17.3608C111.721 17.3608 111.816 17.3651 111.921 17.3736C112.029 17.3793 112.119 17.3892 112.19 17.4034V18.8224C112.124 18.7997 112.021 18.7798 111.879 18.7628C111.739 18.7429 111.604 18.733 111.474 18.733C111.192 18.733 110.94 18.794 110.715 18.9162C110.494 19.0355 110.319 19.2017 110.191 19.4148C110.063 19.6278 109.999 19.8736 109.999 20.152V24H108.457Z" fill="white"/>
<path d="M137.364 21.5682H138.796L139.644 22.6676L140.249 23.3835L141.702 25.25H140.168L139.18 23.9972L138.758 23.4006L137.364 21.5682ZM141.911 20.1364C141.911 21.0767 141.735 21.8821 141.383 22.5526C141.033 23.2202 140.556 23.7315 139.951 24.0866C139.349 24.4418 138.665 24.6193 137.901 24.6193C137.137 24.6193 136.452 24.4418 135.847 24.0866C135.245 23.7287 134.768 23.2159 134.415 22.5483C134.066 21.8778 133.891 21.0739 133.891 20.1364C133.891 19.196 134.066 18.392 134.415 17.7244C134.768 17.054 135.245 16.5412 135.847 16.1861C136.452 15.831 137.137 15.6534 137.901 15.6534C138.665 15.6534 139.349 15.831 139.951 16.1861C140.556 16.5412 141.033 17.054 141.383 17.7244C141.735 18.392 141.911 19.196 141.911 20.1364ZM140.322 20.1364C140.322 19.4744 140.218 18.9162 140.01 18.4616C139.806 18.0043 139.522 17.6591 139.158 17.4261C138.795 17.1903 138.376 17.0724 137.901 17.0724C137.427 17.0724 137.008 17.1903 136.644 17.4261C136.28 17.6591 135.995 18.0043 135.787 18.4616C135.583 18.9162 135.481 19.4744 135.481 20.1364C135.481 20.7983 135.583 21.358 135.787 21.8153C135.995 22.2699 136.28 22.6151 136.644 22.8509C137.008 23.0838 137.427 23.2003 137.901 23.2003C138.376 23.2003 138.795 23.0838 139.158 22.8509C139.522 22.6151 139.806 22.2699 140.01 21.8153C140.218 21.358 140.322 20.7983 140.322 20.1364ZM147.521 21.7472V17.9545H149.064V24.5H147.568V23.3366H147.5C147.352 23.7031 147.109 24.0028 146.771 24.2358C146.436 24.4687 146.023 24.5852 145.531 24.5852C145.102 24.5852 144.723 24.4901 144.393 24.2997C144.067 24.1065 143.811 23.8267 143.626 23.4602C143.442 23.0909 143.349 22.6449 143.349 22.1222V17.9545H144.892V21.8835C144.892 22.2983 145.006 22.6278 145.233 22.8722C145.46 23.1165 145.758 23.2386 146.128 23.2386C146.355 23.2386 146.575 23.1832 146.788 23.0724C147.001 22.9616 147.176 22.7969 147.312 22.5781C147.452 22.3565 147.521 22.0795 147.521 21.7472ZM152.534 24.6321C152.119 24.6321 151.745 24.5582 151.413 24.4105C151.083 24.2599 150.822 24.0384 150.629 23.7457C150.438 23.4531 150.343 23.0923 150.343 22.6634C150.343 22.294 150.411 21.9886 150.548 21.7472C150.684 21.5057 150.87 21.3125 151.106 21.1676C151.342 21.0227 151.607 20.9134 151.903 20.8395C152.201 20.7628 152.509 20.7074 152.828 20.6733C153.211 20.6335 153.522 20.598 153.761 20.5668C153.999 20.5327 154.173 20.4815 154.281 20.4134C154.392 20.3423 154.447 20.233 154.447 20.0852V20.0597C154.447 19.7386 154.352 19.4901 154.161 19.3139C153.971 19.1378 153.697 19.0497 153.339 19.0497C152.961 19.0497 152.661 19.1321 152.44 19.2969C152.221 19.4616 152.073 19.6562 151.997 19.8807L150.556 19.6761C150.67 19.2784 150.857 18.946 151.119 18.679C151.38 18.4091 151.7 18.2074 152.078 18.0739C152.455 17.9375 152.873 17.8693 153.33 17.8693C153.646 17.8693 153.96 17.9062 154.272 17.9801C154.585 18.054 154.87 18.1761 155.129 18.3466C155.387 18.5142 155.595 18.7429 155.751 19.0327C155.91 19.3224 155.99 19.6847 155.99 20.1193V24.5H154.507V23.6009H154.455C154.362 23.7827 154.23 23.9531 154.059 24.1122C153.892 24.2685 153.68 24.3949 153.424 24.4915C153.171 24.5852 152.874 24.6321 152.534 24.6321ZM152.934 23.4986C153.244 23.4986 153.512 23.4375 153.74 23.3153C153.967 23.1903 154.142 23.0256 154.264 22.821C154.389 22.6165 154.451 22.3935 154.451 22.152V21.3807C154.403 21.4205 154.32 21.4574 154.204 21.4915C154.09 21.5256 153.963 21.5554 153.82 21.581C153.678 21.6065 153.538 21.6293 153.399 21.6491C153.259 21.669 153.139 21.6861 153.036 21.7003C152.806 21.7315 152.6 21.7827 152.419 21.8537C152.237 21.9247 152.093 22.0241 151.988 22.152C151.883 22.277 151.83 22.4389 151.83 22.6378C151.83 22.9219 151.934 23.1364 152.142 23.2812C152.349 23.4261 152.613 23.4986 152.934 23.4986Z" fill="white"/>
<path d="M181.245 21.0682H182.677L183.525 22.1676L184.13 22.8835L185.583 24.75H184.049L183.06 23.4972L182.638 22.9006L181.245 21.0682ZM185.792 19.6364C185.792 20.5767 185.616 21.3821 185.263 22.0526C184.914 22.7202 184.437 23.2315 183.832 23.5866C183.229 23.9418 182.546 24.1193 181.782 24.1193C181.018 24.1193 180.333 23.9418 179.728 23.5866C179.126 23.2287 178.648 22.7159 178.296 22.0483C177.947 21.3778 177.772 20.5739 177.772 19.6364C177.772 18.696 177.947 17.892 178.296 17.2244C178.648 16.554 179.126 16.0412 179.728 15.6861C180.333 15.331 181.018 15.1534 181.782 15.1534C182.546 15.1534 183.229 15.331 183.832 15.6861C184.437 16.0412 184.914 16.554 185.263 17.2244C185.616 17.892 185.792 18.696 185.792 19.6364ZM184.202 19.6364C184.202 18.9744 184.099 18.4162 183.891 17.9616C183.687 17.5043 183.403 17.1591 183.039 16.9261C182.675 16.6903 182.256 16.5724 181.782 16.5724C181.308 16.5724 180.888 16.6903 180.525 16.9261C180.161 17.1591 179.876 17.5043 179.668 17.9616C179.464 18.4162 179.362 18.9744 179.362 19.6364C179.362 20.2983 179.464 20.858 179.668 21.3153C179.876 21.7699 180.161 22.1151 180.525 22.3509C180.888 22.5838 181.308 22.7003 181.782 22.7003C182.256 22.7003 182.675 22.5838 183.039 22.3509C183.403 22.1151 183.687 21.7699 183.891 21.3153C184.099 20.858 184.202 20.2983 184.202 19.6364ZM191.402 21.2472V17.4545H192.945V24H191.449V22.8366H191.381C191.233 23.2031 190.99 23.5028 190.652 23.7358C190.317 23.9687 189.903 24.0852 189.412 24.0852C188.983 24.0852 188.604 23.9901 188.274 23.7997C187.947 23.6065 187.692 23.3267 187.507 22.9602C187.322 22.5909 187.23 22.1449 187.23 21.6222V17.4545H188.773V21.3835C188.773 21.7983 188.886 22.1278 189.114 22.3722C189.341 22.6165 189.639 22.7386 190.009 22.7386C190.236 22.7386 190.456 22.6832 190.669 22.5724C190.882 22.4616 191.057 22.2969 191.193 22.0781C191.332 21.8565 191.402 21.5795 191.402 21.2472ZM194.531 24V17.4545H196.074V24H194.531ZM195.306 16.5256C195.062 16.5256 194.852 16.4446 194.676 16.2827C194.5 16.1179 194.412 15.9205 194.412 15.6903C194.412 15.4574 194.5 15.2599 194.676 15.098C194.852 14.9332 195.062 14.8509 195.306 14.8509C195.554 14.8509 195.764 14.9332 195.937 15.098C196.113 15.2599 196.201 15.4574 196.201 15.6903C196.201 15.9205 196.113 16.1179 195.937 16.2827C195.764 16.4446 195.554 16.5256 195.306 16.5256Z" fill="white"/>
<path d="M222.846 18.1719C222.806 17.7997 222.638 17.5099 222.343 17.3026C222.05 17.0952 221.67 16.9915 221.201 16.9915C220.871 16.9915 220.589 17.0412 220.353 17.1406C220.117 17.2401 219.937 17.375 219.812 17.5455C219.687 17.7159 219.623 17.9105 219.62 18.1293C219.62 18.3111 219.661 18.4687 219.744 18.6023C219.829 18.7358 219.944 18.8494 220.089 18.9432C220.234 19.0341 220.394 19.1108 220.57 19.1733C220.746 19.2358 220.924 19.2884 221.103 19.331L221.921 19.5355C222.251 19.6122 222.567 19.7159 222.871 19.8466C223.178 19.9773 223.452 20.142 223.694 20.3409C223.938 20.5398 224.131 20.7798 224.273 21.0611C224.415 21.3423 224.487 21.6719 224.487 22.0497C224.487 22.5611 224.356 23.0114 224.094 23.4006C223.833 23.7869 223.455 24.0895 222.961 24.3082C222.469 24.5241 221.874 24.6321 221.175 24.6321C220.496 24.6321 219.907 24.527 219.407 24.3168C218.91 24.1065 218.521 23.7997 218.239 23.3963C217.961 22.9929 217.81 22.5014 217.788 21.9219H219.343C219.366 22.2259 219.46 22.4787 219.624 22.6804C219.789 22.8821 220.004 23.0327 220.268 23.1321C220.535 23.2315 220.833 23.2812 221.163 23.2812C221.506 23.2812 221.808 23.2301 222.066 23.1278C222.327 23.0227 222.532 22.8778 222.68 22.6932C222.827 22.5057 222.903 22.2869 222.906 22.0369C222.903 21.8097 222.836 21.6222 222.705 21.4744C222.575 21.3239 222.391 21.1989 222.156 21.0994C221.923 20.9972 221.65 20.9062 221.337 20.8267L220.344 20.571C219.626 20.3864 219.058 20.1065 218.64 19.7315C218.225 19.3537 218.018 18.8523 218.018 18.2273C218.018 17.7131 218.157 17.2628 218.435 16.8764C218.717 16.4901 219.099 16.1903 219.582 15.9773C220.065 15.7614 220.612 15.6534 221.222 15.6534C221.842 15.6534 222.384 15.7614 222.85 15.9773C223.319 16.1903 223.687 16.4872 223.954 16.8679C224.221 17.2457 224.359 17.6804 224.367 18.1719H222.846ZM228.725 24.6278C228.069 24.6278 227.502 24.4915 227.025 24.2188C226.551 23.9432 226.186 23.554 225.93 23.0511C225.674 22.5455 225.547 21.9503 225.547 21.2656C225.547 20.5923 225.674 20.0014 225.93 19.4929C226.189 18.9815 226.549 18.5838 227.012 18.2997C227.475 18.0128 228.02 17.8693 228.645 17.8693C229.048 17.8693 229.429 17.9347 229.787 18.0653C230.147 18.1932 230.466 18.392 230.741 18.6619C231.02 18.9318 231.238 19.2756 231.397 19.6932C231.556 20.108 231.636 20.6023 231.636 21.1761V21.6491H226.271V20.6094H230.157C230.154 20.3139 230.091 20.0511 229.966 19.821C229.841 19.5881 229.666 19.4048 229.441 19.2713C229.22 19.1378 228.961 19.071 228.666 19.071C228.35 19.071 228.074 19.1477 227.835 19.3011C227.596 19.4517 227.41 19.6506 227.277 19.8977C227.146 20.142 227.079 20.4105 227.076 20.7031V21.6108C227.076 21.9915 227.146 22.3182 227.285 22.5909C227.424 22.8608 227.619 23.0682 227.869 23.2131C228.119 23.3551 228.412 23.4261 228.747 23.4261C228.971 23.4261 229.174 23.3949 229.356 23.3324C229.538 23.267 229.696 23.1719 229.829 23.0469C229.963 22.9219 230.064 22.767 230.132 22.5824L231.572 22.7443C231.481 23.125 231.308 23.4574 231.052 23.7415C230.799 24.0227 230.475 24.2415 230.081 24.3977C229.686 24.5511 229.234 24.6278 228.725 24.6278ZM234.062 17.9545L235.383 20.3707L236.725 17.9545H238.357L236.384 21.2273L238.391 24.5H236.768L235.383 22.1435L234.011 24.5H232.374L234.369 21.2273L232.425 17.9545H234.062Z" fill="white"/>
<path d="M264.983 18.1719C264.943 17.7997 264.775 17.5099 264.48 17.3026C264.187 17.0952 263.806 16.9915 263.338 16.9915C263.008 16.9915 262.725 17.0412 262.49 17.1406C262.254 17.2401 262.074 17.375 261.949 17.5455C261.824 17.7159 261.76 17.9105 261.757 18.1293C261.757 18.3111 261.798 18.4687 261.88 18.6023C261.966 18.7358 262.081 18.8494 262.225 18.9432C262.37 19.0341 262.531 19.1108 262.707 19.1733C262.883 19.2358 263.061 19.2884 263.24 19.331L264.058 19.5355C264.387 19.6122 264.704 19.7159 265.008 19.8466C265.315 19.9773 265.589 20.142 265.831 20.3409C266.075 20.5398 266.268 20.7798 266.41 21.0611C266.552 21.3423 266.623 21.6719 266.623 22.0497C266.623 22.5611 266.493 23.0114 266.231 23.4006C265.97 23.7869 265.592 24.0895 265.098 24.3082C264.606 24.5241 264.011 24.6321 263.312 24.6321C262.633 24.6321 262.044 24.527 261.544 24.3168C261.047 24.1065 260.657 23.7997 260.376 23.3963C260.098 22.9929 259.947 22.5014 259.924 21.9219H261.48C261.502 22.2259 261.596 22.4787 261.761 22.6804C261.926 22.8821 262.14 23.0327 262.404 23.1321C262.672 23.2315 262.97 23.2812 263.299 23.2812C263.643 23.2812 263.944 23.2301 264.203 23.1278C264.464 23.0227 264.669 22.8778 264.816 22.6932C264.964 22.5057 265.039 22.2869 265.042 22.0369C265.039 21.8097 264.973 21.6222 264.842 21.4744C264.711 21.3239 264.528 21.1989 264.292 21.0994C264.059 20.9972 263.787 20.9062 263.474 20.8267L262.481 20.571C261.762 20.3864 261.194 20.1065 260.777 19.7315C260.362 19.3537 260.154 18.8523 260.154 18.2273C260.154 17.7131 260.294 17.2628 260.572 16.8764C260.853 16.4901 261.235 16.1903 261.718 15.9773C262.201 15.7614 262.748 15.6534 263.359 15.6534C263.978 15.6534 264.521 15.7614 264.987 15.9773C265.456 16.1903 265.824 16.4872 266.091 16.8679C266.358 17.2457 266.495 17.6804 266.504 18.1719H264.983ZM269.848 24.6321C269.433 24.6321 269.06 24.5582 268.727 24.4105C268.398 24.2599 268.136 24.0384 267.943 23.7457C267.753 23.4531 267.658 23.0923 267.658 22.6634C267.658 22.294 267.726 21.9886 267.862 21.7472C267.999 21.5057 268.185 21.3125 268.42 21.1676C268.656 21.0227 268.922 20.9134 269.217 20.8395C269.516 20.7628 269.824 20.7074 270.142 20.6733C270.526 20.6335 270.837 20.598 271.075 20.5668C271.314 20.5327 271.487 20.4815 271.595 20.4134C271.706 20.3423 271.761 20.233 271.761 20.0852V20.0597C271.761 19.7386 271.666 19.4901 271.476 19.3139C271.286 19.1378 271.011 19.0497 270.653 19.0497C270.276 19.0497 269.976 19.1321 269.754 19.2969C269.536 19.4616 269.388 19.6562 269.311 19.8807L267.871 19.6761C267.984 19.2784 268.172 18.946 268.433 18.679C268.695 18.4091 269.014 18.2074 269.392 18.0739C269.77 17.9375 270.188 17.8693 270.645 17.8693C270.96 17.8693 271.274 17.9062 271.587 17.9801C271.899 18.054 272.185 18.1761 272.443 18.3466C272.702 18.5142 272.909 18.7429 273.065 19.0327C273.224 19.3224 273.304 19.6847 273.304 20.1193V24.5H271.821V23.6009H271.77C271.676 23.7827 271.544 23.9531 271.374 24.1122C271.206 24.2685 270.994 24.3949 270.739 24.4915C270.486 24.5852 270.189 24.6321 269.848 24.6321ZM270.249 23.4986C270.558 23.4986 270.827 23.4375 271.054 23.3153C271.281 23.1903 271.456 23.0256 271.578 22.821C271.703 22.6165 271.766 22.3935 271.766 22.152V21.3807C271.717 21.4205 271.635 21.4574 271.518 21.4915C271.405 21.5256 271.277 21.5554 271.135 21.581C270.993 21.6065 270.852 21.6293 270.713 21.6491C270.574 21.669 270.453 21.6861 270.351 21.7003C270.121 21.7315 269.915 21.7827 269.733 21.8537C269.551 21.9247 269.408 22.0241 269.303 22.152C269.197 22.277 269.145 22.4389 269.145 22.6378C269.145 22.9219 269.249 23.1364 269.456 23.2812C269.663 23.4261 269.928 23.4986 270.249 23.4986ZM274.923 24.5V15.7727H276.466V19.0369H276.53C276.609 18.8778 276.722 18.7088 276.866 18.5298C277.011 18.348 277.207 18.1932 277.455 18.0653C277.702 17.9347 278.017 17.8693 278.401 17.8693C278.906 17.8693 279.362 17.9986 279.768 18.2571C280.178 18.5128 280.501 18.892 280.74 19.3949C280.982 19.8949 281.102 20.5085 281.102 21.2358C281.102 21.9545 280.984 22.5653 280.749 23.0682C280.513 23.571 280.192 23.9545 279.786 24.2188C279.379 24.483 278.919 24.6151 278.405 24.6151C278.03 24.6151 277.719 24.5526 277.472 24.4276C277.224 24.3026 277.026 24.152 276.875 23.9759C276.727 23.7969 276.612 23.6278 276.53 23.4688H276.44V24.5H274.923ZM276.436 21.2273C276.436 21.6506 276.496 22.0213 276.615 22.3395C276.737 22.6577 276.912 22.9062 277.139 23.0852C277.369 23.2614 277.648 23.3494 277.974 23.3494C278.315 23.3494 278.601 23.2585 278.831 23.0767C279.061 22.892 279.234 22.6406 279.351 22.3224C279.47 22.0014 279.53 21.6364 279.53 21.2273C279.53 20.821 279.472 20.4602 279.355 20.1449C279.239 19.8295 279.065 19.5824 278.835 19.4034C278.605 19.2244 278.318 19.1349 277.974 19.1349C277.645 19.1349 277.365 19.2216 277.135 19.3949C276.905 19.5682 276.73 19.8111 276.611 20.1236C276.494 20.4361 276.436 20.804 276.436 21.2273Z" fill="white"/>
<path d="M27.1777 52.2727V61H26.1209V53.3807H26.0698L23.9391 54.7955V53.7216L26.1209 52.2727H27.1777Z" fill="white"/>
<path d="M6 37V36.5H5.5V37H6ZM46 37H46.5V36.5H46V37ZM46 77V77.5H46.5V77H46ZM6 77H5.5V77.5H6V77ZM6 37.5H46V36.5H6V37.5ZM45.5 37V77H46.5V37H45.5ZM46 76.5H6V77.5H46V76.5ZM6.5 77V37H5.5V77H6.5Z" fill="#DFDFDF"/>
<path d="M63.2743 61V60.233L66.155 57.0795C66.4931 56.7102 66.7715 56.3892 66.9902 56.1165C67.209 55.8409 67.3709 55.5824 67.476 55.3409C67.584 55.0966 67.638 54.8409 67.638 54.5739C67.638 54.267 67.5641 54.0014 67.4164 53.777C67.2715 53.5526 67.0726 53.3793 66.8198 53.2571C66.5669 53.1349 66.2828 53.0739 65.9675 53.0739C65.6323 53.0739 65.3397 53.1435 65.0897 53.2827C64.8425 53.419 64.6507 53.6108 64.5144 53.858C64.3809 54.1051 64.3141 54.3949 64.3141 54.7273H63.3084C63.3084 54.2159 63.4263 53.767 63.6621 53.3807C63.8979 52.9943 64.2189 52.6932 64.6252 52.4773C65.0343 52.2614 65.4931 52.1534 66.0016 52.1534C66.513 52.1534 66.9661 52.2614 67.361 52.4773C67.7559 52.6932 68.0655 52.9844 68.29 53.3509C68.5144 53.7173 68.6266 54.125 68.6266 54.5739C68.6266 54.8949 68.5684 55.2088 68.4519 55.5156C68.3382 55.8196 68.1394 56.1591 67.8553 56.5341C67.574 56.9062 67.1834 57.3608 66.6834 57.8977L64.7232 59.9943V60.0625H68.78V61H63.2743Z" fill="white"/>
<path d="M46 37V36.5H45.5V37H46ZM86 37H86.5V36.5H86V37ZM86 77V77.5H86.5V77H86ZM46 77H45.5V77.5H46V77ZM46 37.5H86V36.5H46V37.5ZM85.5 37V77H86.5V37H85.5ZM86 76.5H46V77.5H86V76.5ZM46.5 77V37H45.5V77H46.5Z" fill="#DFDFDF"/>
<path d="M106.036 61.1193C105.473 61.1193 104.972 61.0227 104.531 60.8295C104.094 60.6364 103.746 60.3679 103.487 60.0241C103.232 59.6776 103.093 59.2756 103.07 58.8182H104.144C104.166 59.0994 104.263 59.3423 104.433 59.5469C104.604 59.7486 104.827 59.9048 105.102 60.0156C105.378 60.1264 105.683 60.1818 106.019 60.1818C106.394 60.1818 106.726 60.1165 107.016 59.9858C107.306 59.8551 107.533 59.6733 107.698 59.4403C107.862 59.2074 107.945 58.9375 107.945 58.6307C107.945 58.3097 107.865 58.027 107.706 57.7827C107.547 57.5355 107.314 57.3423 107.007 57.2031C106.7 57.0639 106.325 56.9943 105.882 56.9943H105.183V56.0568H105.882C106.229 56.0568 106.533 55.9943 106.794 55.8693C107.058 55.7443 107.264 55.5682 107.412 55.3409C107.563 55.1136 107.638 54.8466 107.638 54.5398C107.638 54.2443 107.573 53.9872 107.442 53.7685C107.311 53.5497 107.127 53.3793 106.888 53.2571C106.652 53.1349 106.374 53.0739 106.053 53.0739C105.752 53.0739 105.468 53.1293 105.2 53.2401C104.936 53.348 104.72 53.5057 104.553 53.7131C104.385 53.9176 104.294 54.1648 104.28 54.4545H103.257C103.274 53.9972 103.412 53.5966 103.671 53.2528C103.929 52.9062 104.267 52.6364 104.685 52.4432C105.105 52.25 105.567 52.1534 106.07 52.1534C106.61 52.1534 107.073 52.2628 107.459 52.4815C107.845 52.6974 108.142 52.983 108.35 53.3381C108.557 53.6932 108.661 54.0767 108.661 54.4886C108.661 54.9801 108.531 55.3991 108.273 55.7457C108.017 56.0923 107.669 56.3324 107.229 56.4659V56.5341C107.78 56.625 108.21 56.8594 108.52 57.2372C108.83 57.6122 108.985 58.0767 108.985 58.6307C108.985 59.1051 108.855 59.5312 108.597 59.9091C108.341 60.2841 107.992 60.5795 107.548 60.7955C107.105 61.0114 106.601 61.1193 106.036 61.1193Z" fill="white"/>
<path d="M86 37V36.5H85.5V37H86ZM126 37H126.5V36.5H126V37ZM126 77V77.5H126.5V77H126ZM86 77H85.5V77.5H86V77ZM86 37.5H126V36.5H86V37.5ZM125.5 37V77H126.5V37H125.5ZM126 76.5H86V77.5H126V76.5ZM86.5 77V37H85.5V77H86.5Z" fill="#DFDFDF"/>
<path d="M142.814 59.2102V58.3409L146.649 52.2727H147.28V53.6193H146.854L143.956 58.2045V58.2727H149.121V59.2102H142.814ZM146.922 61V58.946V58.5412V52.2727H147.928V61H146.922Z" fill="white"/>
<path d="M126 37V36.5H125.5V37H126ZM166 37H166.5V36.5H166V37ZM166 77V77.5H166.5V77H166ZM126 77H125.5V77.5H126V77ZM126 37.5H166V36.5H126V37.5ZM165.5 37V77H166.5V37H165.5ZM166 76.5H126V77.5H166V76.5ZM126.5 77V37H125.5V77H126.5Z" fill="#DFDFDF"/>
<path d="M185.968 61.1193C185.468 61.1193 185.017 61.0199 184.617 60.821C184.216 60.6222 183.895 60.3494 183.654 60.0028C183.412 59.6562 183.28 59.2614 183.257 58.8182H184.28C184.32 59.2131 184.499 59.5398 184.817 59.7983C185.138 60.054 185.521 60.1818 185.968 60.1818C186.325 60.1818 186.644 60.098 186.922 59.9304C187.203 59.7628 187.423 59.5327 187.583 59.2401C187.744 58.9446 187.825 58.6108 187.825 58.2386C187.825 57.858 187.742 57.5185 187.574 57.2202C187.409 56.919 187.182 56.6818 186.892 56.5085C186.602 56.3352 186.271 56.2472 185.899 56.2443C185.632 56.2415 185.358 56.2827 185.077 56.3679C184.796 56.4503 184.564 56.5568 184.382 56.6875L183.394 56.5682L183.922 52.2727H188.456V53.2102H184.808L184.502 55.7841H184.553C184.732 55.642 184.956 55.5241 185.226 55.4304C185.496 55.3366 185.777 55.2898 186.07 55.2898C186.604 55.2898 187.08 55.4176 187.497 55.6733C187.918 55.9261 188.247 56.2727 188.486 56.7131C188.727 57.1534 188.848 57.6562 188.848 58.2216C188.848 58.7784 188.723 59.2756 188.473 59.7131C188.226 60.1477 187.885 60.4915 187.45 60.7443C187.016 60.9943 186.521 61.1193 185.968 61.1193Z" fill="white"/>
<path d="M166 37V36.5H165.5V37H166ZM206 37H206.5V36.5H206V37ZM206 77V77.5H206.5V77H206ZM166 77H165.5V77.5H166V77ZM166 37.5H206V36.5H166V37.5ZM205.5 37V77H206.5V37H205.5ZM206 76.5H166V77.5H206V76.5ZM166.5 77V37H165.5V77H166.5Z" fill="#DFDFDF"/>
<path d="M226.053 61.1193C225.695 61.1136 225.337 61.0455 224.979 60.9148C224.621 60.7841 224.294 60.5639 223.999 60.2543C223.703 59.9418 223.466 59.5199 223.287 58.9886C223.108 58.4545 223.019 57.7841 223.019 56.9773C223.019 56.2045 223.091 55.5199 223.236 54.9233C223.381 54.3239 223.591 53.8196 223.867 53.4105C224.142 52.9986 224.475 52.6861 224.864 52.473C225.256 52.2599 225.698 52.1534 226.189 52.1534C226.678 52.1534 227.112 52.2514 227.493 52.4474C227.877 52.6406 228.189 52.9105 228.431 53.2571C228.672 53.6037 228.828 54.0028 228.899 54.4545H227.86C227.763 54.0625 227.575 53.7372 227.297 53.4787C227.019 53.2202 226.649 53.0909 226.189 53.0909C225.513 53.0909 224.98 53.3849 224.591 53.973C224.205 54.5611 224.01 55.3864 224.007 56.4489H224.075C224.235 56.2074 224.423 56.0014 224.642 55.831C224.864 55.6577 225.108 55.5241 225.375 55.4304C225.642 55.3366 225.925 55.2898 226.223 55.2898C226.723 55.2898 227.181 55.4148 227.595 55.6648C228.01 55.9119 228.343 56.2543 228.593 56.6918C228.843 57.1264 228.968 57.625 228.968 58.1875C228.968 58.7273 228.847 59.2216 228.605 59.6705C228.364 60.1165 228.024 60.4716 227.587 60.7358C227.152 60.9972 226.641 61.125 226.053 61.1193ZM226.053 60.1818C226.411 60.1818 226.732 60.0923 227.016 59.9134C227.303 59.7344 227.529 59.4943 227.693 59.1932C227.861 58.892 227.945 58.5568 227.945 58.1875C227.945 57.8267 227.864 57.4986 227.702 57.2031C227.543 56.9048 227.323 56.6676 227.041 56.4915C226.763 56.3153 226.445 56.2273 226.087 56.2273C225.817 56.2273 225.566 56.2812 225.333 56.3892C225.1 56.4943 224.895 56.6392 224.719 56.8239C224.546 57.0085 224.409 57.2202 224.31 57.4588C224.21 57.6946 224.161 57.9432 224.161 58.2045C224.161 58.5511 224.242 58.875 224.404 59.1761C224.568 59.4773 224.793 59.7202 225.077 59.9048C225.364 60.0895 225.689 60.1818 226.053 60.1818Z" fill="white"/>
<path d="M206 37V36.5H205.5V37H206ZM246 37H246.5V36.5H246V37ZM246 77V77.5H246.5V77H246ZM206 77H205.5V77.5H206V77ZM206 37.5H246V36.5H206V37.5ZM245.5 37V77H246.5V37H245.5ZM246 76.5H206V77.5H246V76.5ZM206.5 77V37H205.5V77H206.5Z" fill="#DFDFDF"/>
<path d="M263.752 61L267.655 53.2784V53.2102H263.155V52.2727H268.746V53.2614L264.86 61H263.752Z" fill="white"/>
<path d="M246 37V36.5H245.5V37H246ZM286 37H286.5V36.5H286V37ZM286 77V77.5H286.5V77H286ZM246 77H245.5V77.5H246V77ZM246 37.5H286V36.5H246V37.5ZM285.5 37V77H286.5V37H285.5ZM286 76.5H246V77.5H286V76.5ZM246.5 77V37H245.5V77H246.5Z" fill="#DFDFDF"/>
<path d="M26.0016 101.119C25.4164 101.119 24.8993 101.016 24.4505 100.808C24.0044 100.598 23.6564 100.31 23.4064 99.9432C23.1564 99.5739 23.0328 99.1534 23.0357 98.6818C23.0328 98.3125 23.1053 97.9716 23.253 97.6591C23.4007 97.3437 23.6025 97.081 23.8581 96.8707C24.1167 96.6577 24.405 96.5227 24.7232 96.4659V96.4148C24.3056 96.3068 23.9732 96.0724 23.726 95.7116C23.4789 95.348 23.3567 94.9347 23.3596 94.4716C23.3567 94.0284 23.4689 93.6321 23.6962 93.2827C23.9235 92.9332 24.236 92.6577 24.6337 92.456C25.0343 92.2543 25.4902 92.1534 26.0016 92.1534C26.5073 92.1534 26.959 92.2543 27.3567 92.456C27.7544 92.6577 28.0669 92.9332 28.2942 93.2827C28.5243 93.6321 28.6408 94.0284 28.6436 94.4716C28.6408 94.9347 28.5144 95.348 28.2644 95.7116C28.0172 96.0724 27.6891 96.3068 27.28 96.4148V96.4659C27.5953 96.5227 27.8794 96.6577 28.1323 96.8707C28.3851 97.081 28.5868 97.3437 28.7374 97.6591C28.888 97.9716 28.9647 98.3125 28.9675 98.6818C28.9647 99.1534 28.8368 99.5739 28.584 99.9432C28.334 100.31 27.986 100.598 27.54 100.808C27.0968 101.016 26.584 101.119 26.0016 101.119ZM26.0016 100.182C26.3965 100.182 26.7374 100.118 27.0243 99.9901C27.3113 99.8622 27.5328 99.6818 27.6891 99.4489C27.8453 99.2159 27.9249 98.9432 27.9277 98.6307C27.9249 98.3011 27.8397 98.0099 27.6721 97.7571C27.5044 97.5043 27.2757 97.3054 26.986 97.1605C26.699 97.0156 26.3709 96.9432 26.0016 96.9432C25.6294 96.9432 25.2971 97.0156 25.0044 97.1605C24.7147 97.3054 24.486 97.5043 24.3184 97.7571C24.1536 98.0099 24.0726 98.3011 24.0755 98.6307C24.0726 98.9432 24.1479 99.2159 24.3013 99.4489C24.4576 99.6818 24.6806 99.8622 24.9703 99.9901C25.2601 100.118 25.6039 100.182 26.0016 100.182ZM26.0016 96.0398C26.3141 96.0398 26.5911 95.9773 26.8326 95.8523C27.0769 95.7273 27.2686 95.5526 27.4078 95.3281C27.5471 95.1037 27.6181 94.8409 27.6209 94.5398C27.6181 94.2443 27.5485 93.9872 27.4121 93.7685C27.2757 93.5469 27.0868 93.3764 26.8453 93.2571C26.6039 93.1349 26.3226 93.0739 26.0016 93.0739C25.6749 93.0739 25.3894 93.1349 25.1451 93.2571C24.9007 93.3764 24.7118 93.5469 24.5783 93.7685C24.4448 93.9872 24.3794 94.2443 24.3823 94.5398C24.3794 94.8409 24.4462 95.1037 24.5826 95.3281C24.7218 95.5526 24.9135 95.7273 25.1578 95.8523C25.4022 95.9773 25.6834 96.0398 26.0016 96.0398Z" fill="white"/>
<path d="M6 77V76.5H5.5V77H6ZM46 77H46.5V76.5H46V77ZM46 117V117.5H46.5V117H46ZM6 117H5.5V117.5H6V117ZM6 77.5H46V76.5H6V77.5ZM45.5 77V117H46.5V77H45.5ZM46 116.5H6V117.5H46V116.5ZM6.5 117V77H5.5V117H6.5Z" fill="#DFDFDF"/>
<path d="M65.9334 92.1534C66.2914 92.1562 66.6493 92.2244 67.0073 92.358C67.3652 92.4915 67.6919 92.7131 67.9874 93.0227C68.2828 93.3295 68.5201 93.7486 68.699 94.2798C68.878 94.8111 68.9675 95.4773 68.9675 96.2784C68.9675 97.054 68.8936 97.7429 68.7459 98.3452C68.601 98.9446 68.3908 99.4503 68.1152 99.8622C67.8425 100.274 67.5101 100.587 67.1181 100.8C66.7289 101.013 66.2885 101.119 65.7971 101.119C65.3084 101.119 64.8723 101.023 64.4888 100.83C64.1081 100.634 63.7956 100.362 63.5513 100.016C63.3098 99.6662 63.155 99.2614 63.0868 98.8011H64.1266C64.2203 99.2017 64.4064 99.5327 64.6848 99.794C64.9661 100.053 65.3368 100.182 65.7971 100.182C66.4703 100.182 67.0016 99.8878 67.3908 99.2997C67.7828 98.7116 67.9789 97.8807 67.9789 96.8068H67.9107C67.7516 97.0455 67.5627 97.2514 67.3439 97.4247C67.1252 97.598 66.8823 97.7315 66.6152 97.8253C66.3482 97.919 66.0641 97.9659 65.763 97.9659C65.263 97.9659 64.8042 97.8423 64.3865 97.5952C63.9718 97.3452 63.6394 97.0028 63.3894 96.5682C63.1422 96.1307 63.0186 95.6307 63.0186 95.0682C63.0186 94.5341 63.138 94.0455 63.3766 93.6023C63.6181 93.1562 63.9561 92.8011 64.3908 92.5369C64.8283 92.2727 65.3425 92.1449 65.9334 92.1534ZM65.9334 93.0909C65.5755 93.0909 65.253 93.1804 64.9661 93.3594C64.682 93.5355 64.4561 93.7741 64.2885 94.0753C64.1238 94.3736 64.0414 94.7045 64.0414 95.0682C64.0414 95.4318 64.1209 95.7628 64.28 96.0611C64.4419 96.3565 64.6621 96.5923 64.9405 96.7685C65.2218 96.9418 65.5414 97.0284 65.8993 97.0284C66.1692 97.0284 66.4206 96.9759 66.6536 96.8707C66.8865 96.7628 67.0897 96.6165 67.263 96.4318C67.4391 96.2443 67.5769 96.0327 67.6763 95.7969C67.7757 95.5582 67.8255 95.3097 67.8255 95.0511C67.8255 94.7102 67.7431 94.3906 67.5783 94.0923C67.4164 93.794 67.1919 93.5526 66.905 93.3679C66.6209 93.1832 66.2971 93.0909 65.9334 93.0909Z" fill="white"/>
<path d="M46 77V76.5H45.5V77H46ZM86 77H86.5V76.5H86V77ZM86 117V117.5H86.5V117H86ZM46 117H45.5V117.5H46V117ZM46 77.5H86V76.5H46V77.5ZM85.5 77V117H86.5V77H85.5ZM86 116.5H46V117.5H86V116.5ZM46.5 117V77H45.5V117H46.5Z" fill="#DFDFDF"/>
<path d="M103.293 92.2727V101H102.236V93.3807H102.185L100.054 94.7955V93.7216L102.236 92.2727H103.293ZM109.886 101.119C109.244 101.119 108.697 100.945 108.246 100.595C107.794 100.243 107.449 99.733 107.21 99.0653C106.972 98.3949 106.852 97.5852 106.852 96.6364C106.852 95.6932 106.972 94.8878 107.21 94.2202C107.452 93.5497 107.798 93.0384 108.25 92.6861C108.705 92.331 109.25 92.1534 109.886 92.1534C110.523 92.1534 111.067 92.331 111.518 92.6861C111.973 93.0384 112.32 93.5497 112.558 94.2202C112.8 94.8878 112.92 95.6932 112.92 96.6364C112.92 97.5852 112.801 98.3949 112.562 99.0653C112.324 99.733 111.979 100.243 111.527 100.595C111.075 100.945 110.528 101.119 109.886 101.119ZM109.886 100.182C110.523 100.182 111.017 99.875 111.369 99.2614C111.722 98.6477 111.898 97.7727 111.898 96.6364C111.898 95.8807 111.817 95.2372 111.655 94.706C111.496 94.1747 111.266 93.7699 110.964 93.4915C110.666 93.2131 110.307 93.0739 109.886 93.0739C109.256 93.0739 108.763 93.3849 108.408 94.0071C108.053 94.6264 107.875 95.5028 107.875 96.6364C107.875 97.392 107.955 98.0341 108.114 98.5625C108.273 99.0909 108.501 99.4929 108.8 99.7685C109.101 100.044 109.463 100.182 109.886 100.182Z" fill="white"/>
<path d="M86 77V76.5H85.5V77H86ZM126 77H126.5V76.5H126V77ZM126 117V117.5H126.5V117H126ZM86 117H85.5V117.5H86V117ZM86 77.5H126V76.5H86V77.5ZM125.5 77V117H126.5V77H125.5ZM126 116.5H86V117.5H126V116.5ZM86.5 117V77H85.5V117H86.5Z" fill="#DFDFDF"/>
<path d="M143.293 92.2727V101H142.236V93.3807H142.185L140.054 94.7955V93.7216L142.236 92.2727H143.293ZM151.062 92.2727V101H150.006V93.3807H149.955L147.824 94.7955V93.7216L150.006 92.2727H151.062Z" fill="white"/>
<path d="M126 77V76.5H125.5V77H126ZM166 77H166.5V76.5H166V77ZM166 117V117.5H166.5V117H166ZM126 117H125.5V117.5H126V117ZM126 77.5H166V76.5H126V77.5ZM165.5 77V117H166.5V77H165.5ZM166 116.5H126V117.5H166V116.5ZM126.5 117V77H125.5V117H126.5Z" fill="#DFDFDF"/>
<path d="M183.293 92.2727V101H182.236V93.3807H182.185L180.054 94.7955V93.7216L182.236 92.2727H183.293ZM187.159 101V100.233L190.04 97.0795C190.378 96.7102 190.656 96.3892 190.875 96.1165C191.094 95.8409 191.256 95.5824 191.361 95.3409C191.469 95.0966 191.523 94.8409 191.523 94.5739C191.523 94.267 191.449 94.0014 191.301 93.777C191.156 93.5526 190.957 93.3793 190.705 93.2571C190.452 93.1349 190.168 93.0739 189.852 93.0739C189.517 93.0739 189.224 93.1435 188.974 93.2827C188.727 93.419 188.536 93.6108 188.399 93.858C188.266 94.1051 188.199 94.3949 188.199 94.7273H187.193C187.193 94.2159 187.311 93.767 187.547 93.3807C187.783 92.9943 188.104 92.6932 188.51 92.4773C188.919 92.2614 189.378 92.1534 189.886 92.1534C190.398 92.1534 190.851 92.2614 191.246 92.4773C191.641 92.6932 191.95 92.9844 192.175 93.3509C192.399 93.7173 192.511 94.125 192.511 94.5739C192.511 94.8949 192.453 95.2088 192.337 95.5156C192.223 95.8196 192.024 96.1591 191.74 96.5341C191.459 96.9062 191.068 97.3608 190.568 97.8977L188.608 99.9943V100.062H192.665V101H187.159Z" fill="white"/>
<path d="M166 77V76.5H165.5V77H166ZM206 77H206.5V76.5H206V77ZM206 117V117.5H206.5V117H206ZM166 117H165.5V117.5H166V117ZM166 77.5H206V76.5H166V77.5ZM205.5 77V117H206.5V77H205.5ZM206 116.5H166V117.5H206V116.5ZM166.5 117V77H165.5V117H166.5Z" fill="#DFDFDF"/>
<path d="M223.293 92.2727V101H222.236V93.3807H222.185L220.054 94.7955V93.7216L222.236 92.2727H223.293ZM229.92 101.119C229.358 101.119 228.857 101.023 228.416 100.83C227.979 100.636 227.631 100.368 227.372 100.024C227.116 99.6776 226.977 99.2756 226.955 98.8182H228.028C228.051 99.0994 228.148 99.3423 228.318 99.5469C228.489 99.7486 228.712 99.9048 228.987 100.016C229.263 100.126 229.568 100.182 229.903 100.182C230.278 100.182 230.611 100.116 230.901 99.9858C231.19 99.8551 231.418 99.6733 231.582 99.4403C231.747 99.2074 231.83 98.9375 231.83 98.6307C231.83 98.3097 231.75 98.027 231.591 97.7827C231.432 97.5355 231.199 97.3423 230.892 97.2031C230.585 97.0639 230.21 96.9943 229.767 96.9943H229.068V96.0568H229.767C230.114 96.0568 230.418 95.9943 230.679 95.8693C230.943 95.7443 231.149 95.5682 231.297 95.3409C231.447 95.1136 231.523 94.8466 231.523 94.5398C231.523 94.2443 231.457 93.9872 231.327 93.7685C231.196 93.5497 231.011 93.3793 230.773 93.2571C230.537 93.1349 230.259 93.0739 229.938 93.0739C229.636 93.0739 229.352 93.1293 229.085 93.2401C228.821 93.348 228.605 93.5057 228.438 93.7131C228.27 93.9176 228.179 94.1648 228.165 94.4545H227.142C227.159 93.9972 227.297 93.5966 227.555 93.2528C227.814 92.9062 228.152 92.6364 228.57 92.4432C228.99 92.25 229.452 92.1534 229.955 92.1534C230.494 92.1534 230.957 92.2628 231.344 92.4815C231.73 92.6974 232.027 92.983 232.234 93.3381C232.442 93.6932 232.545 94.0767 232.545 94.4886C232.545 94.9801 232.416 95.3991 232.158 95.7457C231.902 96.0923 231.554 96.3324 231.114 96.4659V96.5341C231.665 96.625 232.095 96.8594 232.405 97.2372C232.714 97.6122 232.869 98.0767 232.869 98.6307C232.869 99.1051 232.74 99.5312 232.482 99.9091C232.226 100.284 231.876 100.58 231.433 100.795C230.99 101.011 230.486 101.119 229.92 101.119Z" fill="white"/>
<path d="M206 77V76.5H205.5V77H206ZM246 77H246.5V76.5H246V77ZM246 117V117.5H246.5V117H246ZM206 117H205.5V117.5H206V117ZM206 77.5H246V76.5H206V77.5ZM245.5 77V117H246.5V77H245.5ZM246 116.5H206V117.5H246V116.5ZM206.5 117V77H205.5V117H206.5Z" fill="#DFDFDF"/>
<path d="M263.293 92.2727V101H262.236V93.3807H262.185L260.054 94.7955V93.7216L262.236 92.2727H263.293ZM266.699 99.2102V98.3409L270.534 92.2727H271.165V93.6193H270.739L267.841 98.2045V98.2727H273.006V99.2102H266.699ZM270.807 101V98.946V98.5412V92.2727H271.812V101H270.807Z" fill="white"/>
<path d="M246 77V76.5H245.5V77H246ZM286 77H286.5V76.5H286V77ZM286 117V117.5H286.5V117H286ZM246 117H245.5V117.5H246V117ZM246 77.5H286V76.5H246V77.5ZM285.5 77V117H286.5V77H285.5ZM286 116.5H246V117.5H286V116.5ZM246.5 117V77H245.5V117H246.5Z" fill="#DFDFDF"/>
<path d="M23.293 132.273V141H22.2362V133.381H22.185L20.0543 134.795V133.722L22.2362 132.273H23.293ZM29.8523 141.119C29.3523 141.119 28.902 141.02 28.5014 140.821C28.1009 140.622 27.7798 140.349 27.5384 140.003C27.2969 139.656 27.1648 139.261 27.142 138.818H28.1648C28.2045 139.213 28.3835 139.54 28.7017 139.798C29.0227 140.054 29.4063 140.182 29.8523 140.182C30.2102 140.182 30.5284 140.098 30.8068 139.93C31.0881 139.763 31.3082 139.533 31.4673 139.24C31.6293 138.945 31.7102 138.611 31.7102 138.239C31.7102 137.858 31.6264 137.518 31.4588 137.22C31.294 136.919 31.0668 136.682 30.777 136.509C30.4872 136.335 30.1563 136.247 29.7841 136.244C29.517 136.241 29.2429 136.283 28.9616 136.368C28.6804 136.45 28.4489 136.557 28.267 136.688L27.2784 136.568L27.8068 132.273H32.3409V133.21H28.6932L28.3864 135.784H28.4375C28.6165 135.642 28.8409 135.524 29.1108 135.43C29.3807 135.337 29.6619 135.29 29.9545 135.29C30.4886 135.29 30.9645 135.418 31.3821 135.673C31.8026 135.926 32.1321 136.273 32.3707 136.713C32.6122 137.153 32.733 137.656 32.733 138.222C32.733 138.778 32.608 139.276 32.358 139.713C32.1108 140.148 31.7699 140.491 31.3352 140.744C30.9006 140.994 30.4063 141.119 29.8523 141.119Z" fill="white"/>
<path d="M6 117V116.5H5.5V117H6ZM46 117H46.5V116.5H46V117ZM46 157V157.5H46.5V157H46ZM6 157H5.5V157.5H6V157ZM6 117.5H46V116.5H6V117.5ZM45.5 117V157H46.5V117H45.5ZM46 156.5H6V157.5H46V156.5ZM6.5 157V117H5.5V157H6.5Z" fill="#DFDFDF"/>
<path d="M63.293 132.273V141H62.2362V133.381H62.185L60.0543 134.795V133.722L62.2362 132.273H63.293ZM69.9375 141.119C69.5795 141.114 69.2216 141.045 68.8636 140.915C68.5057 140.784 68.179 140.564 67.8835 140.254C67.5881 139.942 67.3509 139.52 67.1719 138.989C66.9929 138.455 66.9034 137.784 66.9034 136.977C66.9034 136.205 66.9759 135.52 67.1207 134.923C67.2656 134.324 67.4759 133.82 67.7514 133.411C68.027 132.999 68.3594 132.686 68.7486 132.473C69.1406 132.26 69.5824 132.153 70.0739 132.153C70.5625 132.153 70.9972 132.251 71.3778 132.447C71.7614 132.641 72.0739 132.911 72.3153 133.257C72.5568 133.604 72.7131 134.003 72.7841 134.455H71.7443C71.6477 134.062 71.4602 133.737 71.1818 133.479C70.9034 133.22 70.5341 133.091 70.0739 133.091C69.3977 133.091 68.8651 133.385 68.4759 133.973C68.0895 134.561 67.8949 135.386 67.892 136.449H67.9602C68.1193 136.207 68.3082 136.001 68.527 135.831C68.7486 135.658 68.9929 135.524 69.2599 135.43C69.527 135.337 69.8097 135.29 70.108 135.29C70.608 135.29 71.0653 135.415 71.4801 135.665C71.8949 135.912 72.2273 136.254 72.4773 136.692C72.7273 137.126 72.8523 137.625 72.8523 138.188C72.8523 138.727 72.7315 139.222 72.4901 139.67C72.2486 140.116 71.9091 140.472 71.4716 140.736C71.0369 140.997 70.5256 141.125 69.9375 141.119ZM69.9375 140.182C70.2955 140.182 70.6165 140.092 70.9006 139.913C71.1875 139.734 71.4134 139.494 71.5781 139.193C71.7457 138.892 71.8295 138.557 71.8295 138.188C71.8295 137.827 71.7486 137.499 71.5866 137.203C71.4276 136.905 71.2074 136.668 70.9261 136.491C70.6477 136.315 70.3295 136.227 69.9716 136.227C69.7017 136.227 69.4503 136.281 69.2173 136.389C68.9844 136.494 68.7798 136.639 68.6037 136.824C68.4304 137.009 68.294 137.22 68.1946 137.459C68.0952 137.695 68.0455 137.943 68.0455 138.205C68.0455 138.551 68.1264 138.875 68.2884 139.176C68.4531 139.477 68.6776 139.72 68.9616 139.905C69.2486 140.089 69.5739 140.182 69.9375 140.182Z" fill="white"/>
<path d="M46 117V116.5H45.5V117H46ZM86 117H86.5V116.5H86V117ZM86 157V157.5H86.5V157H86ZM46 157H45.5V157.5H46V157ZM46 117.5H86V116.5H46V117.5ZM85.5 117V157H86.5V117H85.5ZM86 156.5H46V157.5H86V156.5ZM46.5 157V117H45.5V157H46.5Z" fill="#DFDFDF"/>
<path d="M86 117H126V157H86V117Z" fill="#721B1B"/>
<path d="M103.293 132.273V141H102.236V133.381H102.185L100.054 134.795V133.722L102.236 132.273H103.293ZM107.636 141L111.54 133.278V133.21H107.04V132.273H112.631V133.261L108.744 141H107.636Z" fill="white"/>
<path d="M86 117V116.5H85.5V117H86ZM126 117H126.5V116.5H126V117ZM126 157V157.5H126.5V157H126ZM86 157H85.5V157.5H86V157ZM86 117.5H126V116.5H86V117.5ZM125.5 117V157H126.5V117H125.5ZM126 156.5H86V157.5H126V156.5ZM86.5 157V117H85.5V157H86.5Z" fill="#DFDFDF"/>
<path d="M126 117H166V157H126V117Z" fill="#C19B9B"/>
<path d="M143.569 132.273V141H141.724V134.024H141.673L139.674 135.277V133.641L141.835 132.273H143.569ZM150.091 141.119C149.435 141.119 148.851 141.013 148.339 140.8C147.831 140.584 147.432 140.29 147.142 139.918C146.852 139.545 146.707 139.124 146.707 138.652C146.707 138.288 146.79 137.955 146.955 137.651C147.122 137.344 147.349 137.089 147.636 136.888C147.923 136.683 148.244 136.553 148.599 136.496V136.436C148.134 136.342 147.756 136.116 147.466 135.759C147.176 135.398 147.031 134.979 147.031 134.501C147.031 134.05 147.163 133.648 147.428 133.295C147.692 132.94 148.054 132.662 148.514 132.46C148.977 132.256 149.503 132.153 150.091 132.153C150.679 132.153 151.203 132.256 151.663 132.46C152.126 132.665 152.49 132.945 152.754 133.3C153.018 133.652 153.152 134.053 153.155 134.501C153.152 134.982 153.004 135.401 152.712 135.759C152.419 136.116 152.044 136.342 151.587 136.436V136.496C151.936 136.553 152.253 136.683 152.537 136.888C152.824 137.089 153.051 137.344 153.219 137.651C153.389 137.955 153.476 138.288 153.479 138.652C153.476 139.124 153.33 139.545 153.04 139.918C152.75 140.29 152.349 140.584 151.838 140.8C151.33 141.013 150.747 141.119 150.091 141.119ZM150.091 139.764C150.384 139.764 150.639 139.712 150.858 139.607C151.077 139.499 151.247 139.351 151.369 139.163C151.494 138.973 151.557 138.754 151.557 138.507C151.557 138.254 151.493 138.031 151.365 137.838C151.237 137.642 151.064 137.489 150.845 137.378C150.626 137.264 150.375 137.207 150.091 137.207C149.81 137.207 149.558 137.264 149.337 137.378C149.115 137.489 148.94 137.642 148.812 137.838C148.688 138.031 148.625 138.254 148.625 138.507C148.625 138.754 148.686 138.973 148.808 139.163C148.93 139.351 149.102 139.499 149.324 139.607C149.545 139.712 149.801 139.764 150.091 139.764ZM150.091 135.865C150.335 135.865 150.553 135.815 150.743 135.716C150.933 135.616 151.082 135.479 151.19 135.303C151.298 135.126 151.352 134.923 151.352 134.693C151.352 134.466 151.298 134.267 151.19 134.097C151.082 133.923 150.935 133.788 150.747 133.692C150.56 133.592 150.341 133.543 150.091 133.543C149.844 133.543 149.625 133.592 149.435 133.692C149.244 133.788 149.095 133.923 148.987 134.097C148.882 134.267 148.83 134.466 148.83 134.693C148.83 134.923 148.884 135.126 148.991 135.303C149.099 135.479 149.249 135.616 149.439 135.716C149.629 135.815 149.847 135.865 150.091 135.865Z" fill="white"/>
<path d="M126 117V116.5H125.5V117H126ZM166 117H166.5V116.5H166V117ZM166 157V157.5H166.5V157H166ZM126 157H125.5V157.5H126V157ZM126 117.5H166V116.5H126V117.5ZM165.5 117V157H166.5V117H165.5ZM166 156.5H126V157.5H166V156.5ZM126.5 157V117H125.5V157H126.5Z" fill="#DFDFDF"/>
<path d="M166 117H206V157H166V117Z" fill="#721B1B"/>
<path d="M183.293 132.273V141H182.236V133.381H182.185L180.054 134.795V133.722L182.236 132.273H183.293ZM189.818 132.153C190.176 132.156 190.534 132.224 190.892 132.358C191.25 132.491 191.577 132.713 191.872 133.023C192.168 133.33 192.405 133.749 192.584 134.28C192.763 134.811 192.852 135.477 192.852 136.278C192.852 137.054 192.778 137.743 192.631 138.345C192.486 138.945 192.276 139.45 192 139.862C191.727 140.274 191.395 140.587 191.003 140.8C190.614 141.013 190.173 141.119 189.682 141.119C189.193 141.119 188.757 141.023 188.374 140.83C187.993 140.634 187.68 140.362 187.436 140.016C187.195 139.666 187.04 139.261 186.972 138.801H188.011C188.105 139.202 188.291 139.533 188.57 139.794C188.851 140.053 189.222 140.182 189.682 140.182C190.355 140.182 190.886 139.888 191.276 139.3C191.668 138.712 191.864 137.881 191.864 136.807H191.795C191.636 137.045 191.447 137.251 191.229 137.425C191.01 137.598 190.767 137.732 190.5 137.825C190.233 137.919 189.949 137.966 189.648 137.966C189.148 137.966 188.689 137.842 188.271 137.595C187.857 137.345 187.524 137.003 187.274 136.568C187.027 136.131 186.903 135.631 186.903 135.068C186.903 134.534 187.023 134.045 187.261 133.602C187.503 133.156 187.841 132.801 188.276 132.537C188.713 132.273 189.227 132.145 189.818 132.153ZM189.818 133.091C189.46 133.091 189.138 133.18 188.851 133.359C188.567 133.536 188.341 133.774 188.173 134.075C188.009 134.374 187.926 134.705 187.926 135.068C187.926 135.432 188.006 135.763 188.165 136.061C188.327 136.357 188.547 136.592 188.825 136.768C189.107 136.942 189.426 137.028 189.784 137.028C190.054 137.028 190.305 136.976 190.538 136.871C190.771 136.763 190.974 136.616 191.148 136.432C191.324 136.244 191.462 136.033 191.561 135.797C191.661 135.558 191.71 135.31 191.71 135.051C191.71 134.71 191.628 134.391 191.463 134.092C191.301 133.794 191.077 133.553 190.79 133.368C190.506 133.183 190.182 133.091 189.818 133.091Z" fill="white"/>
<path d="M166 117V116.5H165.5V117H166ZM206 117H206.5V116.5H206V117ZM206 157V157.5H206.5V157H206ZM166 157H165.5V157.5H166V157ZM166 117.5H206V116.5H166V117.5ZM205.5 117V157H206.5V117H205.5ZM206 156.5H166V157.5H206V156.5ZM166.5 157V117H165.5V157H166.5Z" fill="#DFDFDF"/>
<path d="M206 117H246V157H206V117Z" fill="#721B1B"/>
<path d="M219.39 141V140.233L222.27 137.08C222.608 136.71 222.887 136.389 223.105 136.116C223.324 135.841 223.486 135.582 223.591 135.341C223.699 135.097 223.753 134.841 223.753 134.574C223.753 134.267 223.679 134.001 223.532 133.777C223.387 133.553 223.188 133.379 222.935 133.257C222.682 133.135 222.398 133.074 222.083 133.074C221.748 133.074 221.455 133.143 221.205 133.283C220.958 133.419 220.766 133.611 220.63 133.858C220.496 134.105 220.429 134.395 220.429 134.727H219.424C219.424 134.216 219.542 133.767 219.777 133.381C220.013 132.994 220.334 132.693 220.74 132.477C221.15 132.261 221.608 132.153 222.117 132.153C222.628 132.153 223.081 132.261 223.476 132.477C223.871 132.693 224.181 132.984 224.405 133.351C224.63 133.717 224.742 134.125 224.742 134.574C224.742 134.895 224.684 135.209 224.567 135.516C224.453 135.82 224.255 136.159 223.971 136.534C223.689 136.906 223.299 137.361 222.799 137.898L220.838 139.994V140.062H224.895V141H219.39ZM229.886 141.119C229.244 141.119 228.697 140.945 228.246 140.595C227.794 140.243 227.449 139.733 227.21 139.065C226.972 138.395 226.852 137.585 226.852 136.636C226.852 135.693 226.972 134.888 227.21 134.22C227.452 133.55 227.798 133.038 228.25 132.686C228.705 132.331 229.25 132.153 229.886 132.153C230.523 132.153 231.067 132.331 231.518 132.686C231.973 133.038 232.32 133.55 232.558 134.22C232.8 134.888 232.92 135.693 232.92 136.636C232.92 137.585 232.801 138.395 232.562 139.065C232.324 139.733 231.979 140.243 231.527 140.595C231.075 140.945 230.528 141.119 229.886 141.119ZM229.886 140.182C230.523 140.182 231.017 139.875 231.369 139.261C231.722 138.648 231.898 137.773 231.898 136.636C231.898 135.881 231.817 135.237 231.655 134.706C231.496 134.175 231.266 133.77 230.964 133.491C230.666 133.213 230.307 133.074 229.886 133.074C229.256 133.074 228.763 133.385 228.408 134.007C228.053 134.626 227.875 135.503 227.875 136.636C227.875 137.392 227.955 138.034 228.114 138.562C228.273 139.091 228.501 139.493 228.8 139.768C229.101 140.044 229.463 140.182 229.886 140.182Z" fill="white"/>
<path d="M206 117V116.5H205.5V117H206ZM246 117H246.5V116.5H246V117ZM246 157V157.5H246.5V157H246ZM206 157H205.5V157.5H206V157ZM206 117.5H246V116.5H206V117.5ZM245.5 117V157H246.5V117H245.5ZM246 156.5H206V157.5H246V156.5ZM206.5 157V117H205.5V157H206.5Z" fill="#DFDFDF"/>
<path d="M246 117H286V157H246V117Z" fill="#721B1B"/>
<path d="M259.39 141V140.233L262.27 137.08C262.608 136.71 262.887 136.389 263.105 136.116C263.324 135.841 263.486 135.582 263.591 135.341C263.699 135.097 263.753 134.841 263.753 134.574C263.753 134.267 263.679 134.001 263.532 133.777C263.387 133.553 263.188 133.379 262.935 133.257C262.682 133.135 262.398 133.074 262.083 133.074C261.748 133.074 261.455 133.143 261.205 133.283C260.958 133.419 260.766 133.611 260.63 133.858C260.496 134.105 260.429 134.395 260.429 134.727H259.424C259.424 134.216 259.542 133.767 259.777 133.381C260.013 132.994 260.334 132.693 260.74 132.477C261.15 132.261 261.608 132.153 262.117 132.153C262.628 132.153 263.081 132.261 263.476 132.477C263.871 132.693 264.181 132.984 264.405 133.351C264.63 133.717 264.742 134.125 264.742 134.574C264.742 134.895 264.684 135.209 264.567 135.516C264.453 135.82 264.255 136.159 263.971 136.534C263.689 136.906 263.299 137.361 262.799 137.898L260.838 139.994V140.062H264.895V141H259.39ZM271.062 132.273V141H270.006V133.381H269.955L267.824 134.795V133.722L270.006 132.273H271.062Z" fill="white"/>
<path d="M246 117V116.5H245.5V117H246ZM286 117H286.5V116.5H286V117ZM286 157V157.5H286.5V157H286ZM246 157H245.5V157.5H246V157ZM246 117.5H286V116.5H246V117.5ZM285.5 117V157H286.5V117H285.5ZM286 156.5H246V157.5H286V156.5ZM246.5 157V117H245.5V157H246.5Z" fill="#DFDFDF"/>
<path d="M19.3896 181V180.233L22.2702 177.08C22.6083 176.71 22.8867 176.389 23.1055 176.116C23.3242 175.841 23.4862 175.582 23.5913 175.341C23.6992 175.097 23.7532 174.841 23.7532 174.574C23.7532 174.267 23.6793 174.001 23.5316 173.777C23.3867 173.553 23.1879 173.379 22.935 173.257C22.6822 173.135 22.3981 173.074 22.0827 173.074C21.7475 173.074 21.4549 173.143 21.2049 173.283C20.9577 173.419 20.766 173.611 20.6296 173.858C20.4961 174.105 20.4293 174.395 20.4293 174.727H19.4237C19.4237 174.216 19.5415 173.767 19.7773 173.381C20.0131 172.994 20.3342 172.693 20.7404 172.477C21.1495 172.261 21.6083 172.153 22.1168 172.153C22.6282 172.153 23.0813 172.261 23.4762 172.477C23.8711 172.693 24.1808 172.984 24.4052 173.351C24.6296 173.717 24.7418 174.125 24.7418 174.574C24.7418 174.895 24.6836 175.209 24.5671 175.516C24.4535 175.82 24.2546 176.159 23.9705 176.534C23.6893 176.906 23.2987 177.361 22.7987 177.898L20.8384 179.994V180.062H24.8952V181H19.3896ZM27.1591 181V180.233L30.0398 177.08C30.3778 176.71 30.6562 176.389 30.875 176.116C31.0938 175.841 31.2557 175.582 31.3608 175.341C31.4688 175.097 31.5227 174.841 31.5227 174.574C31.5227 174.267 31.4489 174.001 31.3011 173.777C31.1563 173.553 30.9574 173.379 30.7045 173.257C30.4517 173.135 30.1676 173.074 29.8523 173.074C29.517 173.074 29.2244 173.143 28.9744 173.283C28.7273 173.419 28.5355 173.611 28.3991 173.858C28.2656 174.105 28.1989 174.395 28.1989 174.727H27.1932C27.1932 174.216 27.3111 173.767 27.5469 173.381C27.7827 172.994 28.1037 172.693 28.5099 172.477C28.919 172.261 29.3778 172.153 29.8864 172.153C30.3977 172.153 30.8509 172.261 31.2457 172.477C31.6406 172.693 31.9503 172.984 32.1747 173.351C32.3991 173.717 32.5114 174.125 32.5114 174.574C32.5114 174.895 32.4531 175.209 32.3366 175.516C32.223 175.82 32.0241 176.159 31.7401 176.534C31.4588 176.906 31.0682 177.361 30.5682 177.898L28.608 179.994V180.062H32.6648V181H27.1591Z" fill="white"/>
<path d="M6 157V156.5H5.5V157H6ZM46 157H46.5V156.5H46V157ZM46 197V197.5H46.5V197H46ZM6 197H5.5V197.5H6V197ZM6 157.5H46V156.5H6V157.5ZM45.5 157V197H46.5V157H45.5ZM46 196.5H6V197.5H46V196.5ZM6.5 197V157H5.5V197H6.5Z" fill="#DFDFDF"/>
<path d="M59.3896 181V180.233L62.2702 177.08C62.6083 176.71 62.8867 176.389 63.1055 176.116C63.3242 175.841 63.4862 175.582 63.5913 175.341C63.6992 175.097 63.7532 174.841 63.7532 174.574C63.7532 174.267 63.6793 174.001 63.5316 173.777C63.3867 173.553 63.1879 173.379 62.935 173.257C62.6822 173.135 62.3981 173.074 62.0827 173.074C61.7475 173.074 61.4549 173.143 61.2049 173.283C60.9577 173.419 60.766 173.611 60.6296 173.858C60.4961 174.105 60.4293 174.395 60.4293 174.727H59.4237C59.4237 174.216 59.5415 173.767 59.7773 173.381C60.0131 172.994 60.3342 172.693 60.7404 172.477C61.1495 172.261 61.6083 172.153 62.1168 172.153C62.6282 172.153 63.0813 172.261 63.4762 172.477C63.8711 172.693 64.1808 172.984 64.4052 173.351C64.6296 173.717 64.7418 174.125 64.7418 174.574C64.7418 174.895 64.6836 175.209 64.5671 175.516C64.4535 175.82 64.2546 176.159 63.9705 176.534C63.6893 176.906 63.2987 177.361 62.7987 177.898L60.8384 179.994V180.062H64.8952V181H59.3896ZM69.9205 181.119C69.358 181.119 68.8565 181.023 68.4162 180.83C67.9787 180.636 67.6307 180.368 67.3722 180.024C67.1165 179.678 66.9773 179.276 66.9545 178.818H68.0284C68.0511 179.099 68.1477 179.342 68.3182 179.547C68.4886 179.749 68.7116 179.905 68.9872 180.016C69.2628 180.126 69.5682 180.182 69.9034 180.182C70.2784 180.182 70.6108 180.116 70.9006 179.986C71.1903 179.855 71.4176 179.673 71.5824 179.44C71.7472 179.207 71.8295 178.938 71.8295 178.631C71.8295 178.31 71.75 178.027 71.5909 177.783C71.4318 177.536 71.1989 177.342 70.892 177.203C70.5852 177.064 70.2102 176.994 69.767 176.994H69.0682V176.057H69.767C70.1136 176.057 70.4176 175.994 70.679 175.869C70.9432 175.744 71.1491 175.568 71.2969 175.341C71.4474 175.114 71.5227 174.847 71.5227 174.54C71.5227 174.244 71.4574 173.987 71.3267 173.768C71.196 173.55 71.0114 173.379 70.7727 173.257C70.5369 173.135 70.2585 173.074 69.9375 173.074C69.6364 173.074 69.3523 173.129 69.0852 173.24C68.821 173.348 68.6051 173.506 68.4375 173.713C68.2699 173.918 68.179 174.165 68.1648 174.455H67.142C67.1591 173.997 67.2969 173.597 67.5554 173.253C67.8139 172.906 68.152 172.636 68.5696 172.443C68.9901 172.25 69.4517 172.153 69.9545 172.153C70.4943 172.153 70.9574 172.263 71.3438 172.482C71.7301 172.697 72.027 172.983 72.2344 173.338C72.4418 173.693 72.5455 174.077 72.5455 174.489C72.5455 174.98 72.4162 175.399 72.1577 175.746C71.902 176.092 71.554 176.332 71.1136 176.466V176.534C71.6648 176.625 72.0952 176.859 72.4048 177.237C72.7145 177.612 72.8693 178.077 72.8693 178.631C72.8693 179.105 72.7401 179.531 72.4815 179.909C72.2259 180.284 71.8764 180.58 71.4332 180.795C70.9901 181.011 70.4858 181.119 69.9205 181.119Z" fill="white"/>
<path d="M46 157V156.5H45.5V157H46ZM86 157H86.5V156.5H86V157ZM86 197V197.5H86.5V197H86ZM46 197H45.5V197.5H46V197ZM46 157.5H86V156.5H46V157.5ZM85.5 157V197H86.5V157H85.5ZM86 196.5H46V197.5H86V196.5ZM46.5 197V157H45.5V197H46.5Z" fill="#DFDFDF"/>
<path d="M99.3896 181V180.233L102.27 177.08C102.608 176.71 102.887 176.389 103.105 176.116C103.324 175.841 103.486 175.582 103.591 175.341C103.699 175.097 103.753 174.841 103.753 174.574C103.753 174.267 103.679 174.001 103.532 173.777C103.387 173.553 103.188 173.379 102.935 173.257C102.682 173.135 102.398 173.074 102.083 173.074C101.748 173.074 101.455 173.143 101.205 173.283C100.958 173.419 100.766 173.611 100.63 173.858C100.496 174.105 100.429 174.395 100.429 174.727H99.4237C99.4237 174.216 99.5415 173.767 99.7773 173.381C100.013 172.994 100.334 172.693 100.74 172.477C101.15 172.261 101.608 172.153 102.117 172.153C102.628 172.153 103.081 172.261 103.476 172.477C103.871 172.693 104.181 172.984 104.405 173.351C104.63 173.717 104.742 174.125 104.742 174.574C104.742 174.895 104.684 175.209 104.567 175.516C104.453 175.82 104.255 176.159 103.971 176.534C103.689 176.906 103.299 177.361 102.799 177.898L100.838 179.994V180.062H104.895V181H99.3896ZM106.699 179.21V178.341L110.534 172.273H111.165V173.619H110.739L107.841 178.205V178.273H113.006V179.21H106.699ZM110.807 181V178.946V178.541V172.273H111.812V181H110.807Z" fill="white"/>
<path d="M86 157V156.5H85.5V157H86ZM126 157H126.5V156.5H126V157ZM126 197V197.5H126.5V197H126ZM86 197H85.5V197.5H86V197ZM86 157.5H126V156.5H86V157.5ZM125.5 157V197H126.5V157H125.5ZM126 196.5H86V197.5H126V196.5ZM86.5 197V157H85.5V197H86.5Z" fill="#DFDFDF"/>
<path d="M139.39 181V180.233L142.27 177.08C142.608 176.71 142.887 176.389 143.105 176.116C143.324 175.841 143.486 175.582 143.591 175.341C143.699 175.097 143.753 174.841 143.753 174.574C143.753 174.267 143.679 174.001 143.532 173.777C143.387 173.553 143.188 173.379 142.935 173.257C142.682 173.135 142.398 173.074 142.083 173.074C141.748 173.074 141.455 173.143 141.205 173.283C140.958 173.419 140.766 173.611 140.63 173.858C140.496 174.105 140.429 174.395 140.429 174.727H139.424C139.424 174.216 139.542 173.767 139.777 173.381C140.013 172.994 140.334 172.693 140.74 172.477C141.15 172.261 141.608 172.153 142.117 172.153C142.628 172.153 143.081 172.261 143.476 172.477C143.871 172.693 144.181 172.984 144.405 173.351C144.63 173.717 144.742 174.125 144.742 174.574C144.742 174.895 144.684 175.209 144.567 175.516C144.453 175.82 144.255 176.159 143.971 176.534C143.689 176.906 143.299 177.361 142.799 177.898L140.838 179.994V180.062H144.895V181H139.39ZM149.852 181.119C149.352 181.119 148.902 181.02 148.501 180.821C148.101 180.622 147.78 180.349 147.538 180.003C147.297 179.656 147.165 179.261 147.142 178.818H148.165C148.205 179.213 148.384 179.54 148.702 179.798C149.023 180.054 149.406 180.182 149.852 180.182C150.21 180.182 150.528 180.098 150.807 179.93C151.088 179.763 151.308 179.533 151.467 179.24C151.629 178.945 151.71 178.611 151.71 178.239C151.71 177.858 151.626 177.518 151.459 177.22C151.294 176.919 151.067 176.682 150.777 176.509C150.487 176.335 150.156 176.247 149.784 176.244C149.517 176.241 149.243 176.283 148.962 176.368C148.68 176.45 148.449 176.557 148.267 176.688L147.278 176.568L147.807 172.273H152.341V173.21H148.693L148.386 175.784H148.438C148.616 175.642 148.841 175.524 149.111 175.43C149.381 175.337 149.662 175.29 149.955 175.29C150.489 175.29 150.964 175.418 151.382 175.673C151.803 175.926 152.132 176.273 152.371 176.713C152.612 177.153 152.733 177.656 152.733 178.222C152.733 178.778 152.608 179.276 152.358 179.713C152.111 180.148 151.77 180.491 151.335 180.744C150.901 180.994 150.406 181.119 149.852 181.119Z" fill="white"/>
<path d="M126 157V156.5H125.5V157H126ZM166 157H166.5V156.5H166V157ZM166 197V197.5H166.5V197H166ZM126 197H125.5V197.5H126V197ZM126 157.5H166V156.5H126V157.5ZM165.5 157V197H166.5V157H165.5ZM166 196.5H126V197.5H166V196.5ZM126.5 197V157H125.5V197H126.5Z" fill="#DFDFDF"/>
<path d="M179.39 181V180.233L182.27 177.08C182.608 176.71 182.887 176.389 183.105 176.116C183.324 175.841 183.486 175.582 183.591 175.341C183.699 175.097 183.753 174.841 183.753 174.574C183.753 174.267 183.679 174.001 183.532 173.777C183.387 173.553 183.188 173.379 182.935 173.257C182.682 173.135 182.398 173.074 182.083 173.074C181.748 173.074 181.455 173.143 181.205 173.283C180.958 173.419 180.766 173.611 180.63 173.858C180.496 174.105 180.429 174.395 180.429 174.727H179.424C179.424 174.216 179.542 173.767 179.777 173.381C180.013 172.994 180.334 172.693 180.74 172.477C181.15 172.261 181.608 172.153 182.117 172.153C182.628 172.153 183.081 172.261 183.476 172.477C183.871 172.693 184.181 172.984 184.405 173.351C184.63 173.717 184.742 174.125 184.742 174.574C184.742 174.895 184.684 175.209 184.567 175.516C184.453 175.82 184.255 176.159 183.971 176.534C183.689 176.906 183.299 177.361 182.799 177.898L180.838 179.994V180.062H184.895V181H179.39ZM189.938 181.119C189.58 181.114 189.222 181.045 188.864 180.915C188.506 180.784 188.179 180.564 187.884 180.254C187.588 179.942 187.351 179.52 187.172 178.989C186.993 178.455 186.903 177.784 186.903 176.977C186.903 176.205 186.976 175.52 187.121 174.923C187.266 174.324 187.476 173.82 187.751 173.411C188.027 172.999 188.359 172.686 188.749 172.473C189.141 172.26 189.582 172.153 190.074 172.153C190.563 172.153 190.997 172.251 191.378 172.447C191.761 172.641 192.074 172.911 192.315 173.257C192.557 173.604 192.713 174.003 192.784 174.455H191.744C191.648 174.062 191.46 173.737 191.182 173.479C190.903 173.22 190.534 173.091 190.074 173.091C189.398 173.091 188.865 173.385 188.476 173.973C188.089 174.561 187.895 175.386 187.892 176.449H187.96C188.119 176.207 188.308 176.001 188.527 175.831C188.749 175.658 188.993 175.524 189.26 175.43C189.527 175.337 189.81 175.29 190.108 175.29C190.608 175.29 191.065 175.415 191.48 175.665C191.895 175.912 192.227 176.254 192.477 176.692C192.727 177.126 192.852 177.625 192.852 178.188C192.852 178.727 192.732 179.222 192.49 179.67C192.249 180.116 191.909 180.472 191.472 180.736C191.037 180.997 190.526 181.125 189.938 181.119ZM189.938 180.182C190.295 180.182 190.616 180.092 190.901 179.913C191.188 179.734 191.413 179.494 191.578 179.193C191.746 178.892 191.83 178.557 191.83 178.188C191.83 177.827 191.749 177.499 191.587 177.203C191.428 176.905 191.207 176.668 190.926 176.491C190.648 176.315 190.33 176.227 189.972 176.227C189.702 176.227 189.45 176.281 189.217 176.389C188.984 176.494 188.78 176.639 188.604 176.824C188.43 177.009 188.294 177.22 188.195 177.459C188.095 177.695 188.045 177.943 188.045 178.205C188.045 178.551 188.126 178.875 188.288 179.176C188.453 179.477 188.678 179.72 188.962 179.905C189.249 180.089 189.574 180.182 189.938 180.182Z" fill="white"/>
<path d="M166 157V156.5H165.5V157H166ZM206 157H206.5V156.5H206V157ZM206 197V197.5H206.5V197H206ZM166 197H165.5V197.5H166V197ZM166 157.5H206V156.5H166V157.5ZM205.5 157V197H206.5V157H205.5ZM206 196.5H166V197.5H206V196.5ZM166.5 197V157H165.5V197H166.5Z" fill="#DFDFDF"/>
<path d="M219.39 181V180.233L222.27 177.08C222.608 176.71 222.887 176.389 223.105 176.116C223.324 175.841 223.486 175.582 223.591 175.341C223.699 175.097 223.753 174.841 223.753 174.574C223.753 174.267 223.679 174.001 223.532 173.777C223.387 173.553 223.188 173.379 222.935 173.257C222.682 173.135 222.398 173.074 222.083 173.074C221.748 173.074 221.455 173.143 221.205 173.283C220.958 173.419 220.766 173.611 220.63 173.858C220.496 174.105 220.429 174.395 220.429 174.727H219.424C219.424 174.216 219.542 173.767 219.777 173.381C220.013 172.994 220.334 172.693 220.74 172.477C221.15 172.261 221.608 172.153 222.117 172.153C222.628 172.153 223.081 172.261 223.476 172.477C223.871 172.693 224.181 172.984 224.405 173.351C224.63 173.717 224.742 174.125 224.742 174.574C224.742 174.895 224.684 175.209 224.567 175.516C224.453 175.82 224.255 176.159 223.971 176.534C223.689 176.906 223.299 177.361 222.799 177.898L220.838 179.994V180.062H224.895V181H219.39ZM227.636 181L231.54 173.278V173.21H227.04V172.273H232.631V173.261L228.744 181H227.636Z" fill="white"/>
<path d="M206 157V156.5H205.5V157H206ZM246 157H246.5V156.5H246V157ZM246 197V197.5H246.5V197H246ZM206 197H205.5V197.5H206V197ZM206 157.5H246V156.5H206V157.5ZM245.5 157V197H246.5V157H245.5ZM246 196.5H206V197.5H246V196.5ZM206.5 197V157H205.5V197H206.5Z" fill="#DFDFDF"/>
<path d="M259.39 181V180.233L262.27 177.08C262.608 176.71 262.887 176.389 263.105 176.116C263.324 175.841 263.486 175.582 263.591 175.341C263.699 175.097 263.753 174.841 263.753 174.574C263.753 174.267 263.679 174.001 263.532 173.777C263.387 173.553 263.188 173.379 262.935 173.257C262.682 173.135 262.398 173.074 262.083 173.074C261.748 173.074 261.455 173.143 261.205 173.283C260.958 173.419 260.766 173.611 260.63 173.858C260.496 174.105 260.429 174.395 260.429 174.727H259.424C259.424 174.216 259.542 173.767 259.777 173.381C260.013 172.994 260.334 172.693 260.74 172.477C261.15 172.261 261.608 172.153 262.117 172.153C262.628 172.153 263.081 172.261 263.476 172.477C263.871 172.693 264.181 172.984 264.405 173.351C264.63 173.717 264.742 174.125 264.742 174.574C264.742 174.895 264.684 175.209 264.567 175.516C264.453 175.82 264.255 176.159 263.971 176.534C263.689 176.906 263.299 177.361 262.799 177.898L260.838 179.994V180.062H264.895V181H259.39ZM269.886 181.119C269.301 181.119 268.784 181.016 268.335 180.808C267.889 180.598 267.541 180.31 267.291 179.943C267.041 179.574 266.918 179.153 266.92 178.682C266.918 178.312 266.99 177.972 267.138 177.659C267.286 177.344 267.487 177.081 267.743 176.871C268.001 176.658 268.29 176.523 268.608 176.466V176.415C268.19 176.307 267.858 176.072 267.611 175.712C267.364 175.348 267.241 174.935 267.244 174.472C267.241 174.028 267.354 173.632 267.581 173.283C267.808 172.933 268.121 172.658 268.518 172.456C268.919 172.254 269.375 172.153 269.886 172.153C270.392 172.153 270.844 172.254 271.241 172.456C271.639 172.658 271.952 172.933 272.179 173.283C272.409 173.632 272.526 174.028 272.528 174.472C272.526 174.935 272.399 175.348 272.149 175.712C271.902 176.072 271.574 176.307 271.165 176.415V176.466C271.48 176.523 271.764 176.658 272.017 176.871C272.27 177.081 272.472 177.344 272.622 177.659C272.773 177.972 272.849 178.312 272.852 178.682C272.849 179.153 272.722 179.574 272.469 179.943C272.219 180.31 271.871 180.598 271.425 180.808C270.982 181.016 270.469 181.119 269.886 181.119ZM269.886 180.182C270.281 180.182 270.622 180.118 270.909 179.99C271.196 179.862 271.418 179.682 271.574 179.449C271.73 179.216 271.81 178.943 271.812 178.631C271.81 178.301 271.724 178.01 271.557 177.757C271.389 177.504 271.161 177.305 270.871 177.161C270.584 177.016 270.256 176.943 269.886 176.943C269.514 176.943 269.182 177.016 268.889 177.161C268.599 177.305 268.371 177.504 268.203 177.757C268.038 178.01 267.957 178.301 267.96 178.631C267.957 178.943 268.033 179.216 268.186 179.449C268.342 179.682 268.565 179.862 268.855 179.99C269.145 180.118 269.489 180.182 269.886 180.182ZM269.886 176.04C270.199 176.04 270.476 175.977 270.717 175.852C270.962 175.727 271.153 175.553 271.293 175.328C271.432 175.104 271.503 174.841 271.506 174.54C271.503 174.244 271.433 173.987 271.297 173.768C271.161 173.547 270.972 173.376 270.73 173.257C270.489 173.135 270.207 173.074 269.886 173.074C269.56 173.074 269.274 173.135 269.03 173.257C268.786 173.376 268.597 173.547 268.463 173.768C268.33 173.987 268.264 174.244 268.267 174.54C268.264 174.841 268.331 175.104 268.467 175.328C268.607 175.553 268.798 175.727 269.043 175.852C269.287 175.977 269.568 176.04 269.886 176.04Z" fill="white"/>
<path d="M246 157V156.5H245.5V157H246ZM286 157H286.5V156.5H286V157ZM286 197V197.5H286.5V197H286ZM246 197H245.5V197.5H246V197ZM246 157.5H286V156.5H246V157.5ZM285.5 157V197H286.5V157H285.5ZM286 196.5H246V197.5H286V196.5ZM246.5 197V157H245.5V197H246.5Z" fill="#DFDFDF"/>
<path d="M19.3896 221V220.233L22.2702 217.08C22.6083 216.71 22.8867 216.389 23.1055 216.116C23.3242 215.841 23.4862 215.582 23.5913 215.341C23.6992 215.097 23.7532 214.841 23.7532 214.574C23.7532 214.267 23.6793 214.001 23.5316 213.777C23.3867 213.553 23.1879 213.379 22.935 213.257C22.6822 213.135 22.3981 213.074 22.0827 213.074C21.7475 213.074 21.4549 213.143 21.2049 213.283C20.9577 213.419 20.766 213.611 20.6296 213.858C20.4961 214.105 20.4293 214.395 20.4293 214.727H19.4237C19.4237 214.216 19.5415 213.767 19.7773 213.381C20.0131 212.994 20.3342 212.693 20.7404 212.477C21.1495 212.261 21.6083 212.153 22.1168 212.153C22.6282 212.153 23.0813 212.261 23.4762 212.477C23.8711 212.693 24.1808 212.984 24.4052 213.351C24.6296 213.717 24.7418 214.125 24.7418 214.574C24.7418 214.895 24.6836 215.209 24.5671 215.516C24.4535 215.82 24.2546 216.159 23.9705 216.534C23.6893 216.906 23.2987 217.361 22.7987 217.898L20.8384 219.994V220.062H24.8952V221H19.3896ZM29.8182 212.153C30.1761 212.156 30.5341 212.224 30.892 212.358C31.25 212.491 31.5767 212.713 31.8722 213.023C32.1676 213.33 32.4048 213.749 32.5838 214.28C32.7628 214.811 32.8523 215.477 32.8523 216.278C32.8523 217.054 32.7784 217.743 32.6307 218.345C32.4858 218.945 32.2756 219.45 32 219.862C31.7273 220.274 31.3949 220.587 31.0028 220.8C30.6136 221.013 30.1733 221.119 29.6818 221.119C29.1932 221.119 28.7571 221.023 28.3736 220.83C27.9929 220.634 27.6804 220.362 27.4361 220.016C27.1946 219.666 27.0398 219.261 26.9716 218.801H28.0114C28.1051 219.202 28.2912 219.533 28.5696 219.794C28.8509 220.053 29.2216 220.182 29.6818 220.182C30.3551 220.182 30.8864 219.888 31.2756 219.3C31.6676 218.712 31.8636 217.881 31.8636 216.807H31.7955C31.6364 217.045 31.4474 217.251 31.2287 217.425C31.0099 217.598 30.767 217.732 30.5 217.825C30.233 217.919 29.9489 217.966 29.6477 217.966C29.1477 217.966 28.6889 217.842 28.2713 217.595C27.8565 217.345 27.5241 217.003 27.2741 216.568C27.027 216.131 26.9034 215.631 26.9034 215.068C26.9034 214.534 27.0227 214.045 27.2614 213.602C27.5028 213.156 27.8409 212.801 28.2756 212.537C28.7131 212.273 29.2273 212.145 29.8182 212.153ZM29.8182 213.091C29.4602 213.091 29.1378 213.18 28.8509 213.359C28.5668 213.536 28.3409 213.774 28.1733 214.075C28.0085 214.374 27.9261 214.705 27.9261 215.068C27.9261 215.432 28.0057 215.763 28.1648 216.061C28.3267 216.357 28.5469 216.592 28.8253 216.768C29.1065 216.942 29.4261 217.028 29.7841 217.028C30.054 217.028 30.3054 216.976 30.5384 216.871C30.7713 216.763 30.9744 216.616 31.1477 216.432C31.3239 216.244 31.4616 216.033 31.5611 215.797C31.6605 215.558 31.7102 215.31 31.7102 215.051C31.7102 214.71 31.6278 214.391 31.4631 214.092C31.3011 213.794 31.0767 213.553 30.7898 213.368C30.5057 213.183 30.1818 213.091 29.8182 213.091Z" fill="white"/>
<path d="M6 197V196.5H5.5V197H6ZM46 197H46.5V196.5H46V197ZM46 237V237.5H46.5V237H46ZM6 237H5.5V237.5H6V237ZM6 197.5H46V196.5H6V197.5ZM45.5 197V237H46.5V197H45.5ZM46 236.5H6V237.5H46V236.5ZM6.5 237V197H5.5V237H6.5Z" fill="#DFDFDF"/>
<path d="M62.1509 221.119C61.5884 221.119 61.087 221.023 60.6467 220.83C60.2092 220.636 59.8612 220.368 59.6026 220.024C59.3469 219.678 59.2077 219.276 59.185 218.818H60.2589C60.2816 219.099 60.3782 219.342 60.5487 219.547C60.7191 219.749 60.9421 219.905 61.2177 220.016C61.4933 220.126 61.7987 220.182 62.1339 220.182C62.5089 220.182 62.8413 220.116 63.131 219.986C63.4208 219.855 63.6481 219.673 63.8129 219.44C63.9776 219.207 64.06 218.938 64.06 218.631C64.06 218.31 63.9805 218.027 63.8214 217.783C63.6623 217.536 63.4293 217.342 63.1225 217.203C62.8157 217.064 62.4407 216.994 61.9975 216.994H61.2987V216.057H61.9975C62.3441 216.057 62.6481 215.994 62.9094 215.869C63.1737 215.744 63.3796 215.568 63.5273 215.341C63.6779 215.114 63.7532 214.847 63.7532 214.54C63.7532 214.244 63.6879 213.987 63.5572 213.768C63.4265 213.55 63.2418 213.379 63.0032 213.257C62.7674 213.135 62.489 213.074 62.168 213.074C61.8668 213.074 61.5827 213.129 61.3157 213.24C61.0515 213.348 60.8356 213.506 60.668 213.713C60.5004 213.918 60.4094 214.165 60.3952 214.455H59.3725C59.3896 213.997 59.5273 213.597 59.7859 213.253C60.0444 212.906 60.3825 212.636 60.8001 212.443C61.2205 212.25 61.6822 212.153 62.185 212.153C62.7248 212.153 63.1879 212.263 63.5742 212.482C63.9606 212.697 64.2575 212.983 64.4648 213.338C64.6722 213.693 64.7759 214.077 64.7759 214.489C64.7759 214.98 64.6467 215.399 64.3881 215.746C64.1325 216.092 63.7844 216.332 63.3441 216.466V216.534C63.8952 216.625 64.3256 216.859 64.6353 217.237C64.945 217.612 65.0998 218.077 65.0998 218.631C65.0998 219.105 64.9705 219.531 64.712 219.909C64.4563 220.284 64.1069 220.58 63.6637 220.795C63.2205 221.011 62.7163 221.119 62.1509 221.119ZM69.8864 221.119C69.2443 221.119 68.6974 220.945 68.2457 220.595C67.794 220.243 67.4489 219.733 67.2102 219.065C66.9716 218.395 66.8523 217.585 66.8523 216.636C66.8523 215.693 66.9716 214.888 67.2102 214.22C67.4517 213.55 67.7983 213.038 68.25 212.686C68.7045 212.331 69.25 212.153 69.8864 212.153C70.5227 212.153 71.0668 212.331 71.5185 212.686C71.973 213.038 72.3196 213.55 72.5582 214.22C72.7997 214.888 72.9205 215.693 72.9205 216.636C72.9205 217.585 72.8011 218.395 72.5625 219.065C72.3239 219.733 71.9787 220.243 71.527 220.595C71.0753 220.945 70.5284 221.119 69.8864 221.119ZM69.8864 220.182C70.5227 220.182 71.017 219.875 71.3693 219.261C71.7216 218.648 71.8977 217.773 71.8977 216.636C71.8977 215.881 71.8168 215.237 71.6548 214.706C71.4957 214.175 71.2656 213.77 70.9645 213.491C70.6662 213.213 70.3068 213.074 69.8864 213.074C69.2557 213.074 68.7628 213.385 68.4077 214.007C68.0526 214.626 67.875 215.503 67.875 216.636C67.875 217.392 67.9545 218.034 68.1136 218.562C68.2727 219.091 68.5014 219.493 68.7997 219.768C69.1009 220.044 69.4631 220.182 69.8864 220.182Z" fill="white"/>
<path d="M46 197V196.5H45.5V197H46ZM86 197H86.5V196.5H86V197ZM86 237V237.5H86.5V237H86ZM46 237H45.5V237.5H46V237ZM46 197.5H86V196.5H46V197.5ZM85.5 197V237H86.5V197H85.5ZM86 236.5H46V237.5H86V236.5ZM46.5 237V197H45.5V237H46.5Z" fill="#DFDFDF"/>
<path d="M102.151 221.119C101.588 221.119 101.087 221.023 100.647 220.83C100.209 220.636 99.8612 220.368 99.6026 220.024C99.3469 219.678 99.2077 219.276 99.185 218.818H100.259C100.282 219.099 100.378 219.342 100.549 219.547C100.719 219.749 100.942 219.905 101.218 220.016C101.493 220.126 101.799 220.182 102.134 220.182C102.509 220.182 102.841 220.116 103.131 219.986C103.421 219.855 103.648 219.673 103.813 219.44C103.978 219.207 104.06 218.938 104.06 218.631C104.06 218.31 103.98 218.027 103.821 217.783C103.662 217.536 103.429 217.342 103.123 217.203C102.816 217.064 102.441 216.994 101.998 216.994H101.299V216.057H101.998C102.344 216.057 102.648 215.994 102.909 215.869C103.174 215.744 103.38 215.568 103.527 215.341C103.678 215.114 103.753 214.847 103.753 214.54C103.753 214.244 103.688 213.987 103.557 213.768C103.426 213.55 103.242 213.379 103.003 213.257C102.767 213.135 102.489 213.074 102.168 213.074C101.867 213.074 101.583 213.129 101.316 213.24C101.051 213.348 100.836 213.506 100.668 213.713C100.5 213.918 100.409 214.165 100.395 214.455H99.3725C99.3896 213.997 99.5273 213.597 99.7859 213.253C100.044 212.906 100.382 212.636 100.8 212.443C101.221 212.25 101.682 212.153 102.185 212.153C102.725 212.153 103.188 212.263 103.574 212.482C103.961 212.697 104.257 212.983 104.465 213.338C104.672 213.693 104.776 214.077 104.776 214.489C104.776 214.98 104.647 215.399 104.388 215.746C104.132 216.092 103.784 216.332 103.344 216.466V216.534C103.895 216.625 104.326 216.859 104.635 217.237C104.945 217.612 105.1 218.077 105.1 218.631C105.1 219.105 104.971 219.531 104.712 219.909C104.456 220.284 104.107 220.58 103.664 220.795C103.221 221.011 102.716 221.119 102.151 221.119ZM111.062 212.273V221H110.006V213.381H109.955L107.824 214.795V213.722L110.006 212.273H111.062Z" fill="white"/>
<path d="M86 197V196.5H85.5V197H86ZM126 197H126.5V196.5H126V197ZM126 237V237.5H126.5V237H126ZM86 237H85.5V237.5H86V237ZM86 197.5H126V196.5H86V197.5ZM125.5 197V237H126.5V197H125.5ZM126 236.5H86V237.5H126V236.5ZM86.5 237V197H85.5V237H86.5Z" fill="#DFDFDF"/>
<path d="M126 197H166V237H126V197Z" fill="#FCFCFC" fill-opacity="0.05"/>
<path opacity="0.35" d="M147.178 212.273V221H146.121V213.381H146.07L143.939 214.795V213.722L146.121 212.273H147.178Z" fill="white"/>
<path d="M126 197V196.5H125.5V197H126ZM166 197H166.5V196.5H166V197ZM166 237V237.5H166.5V237H166ZM126 237H125.5V237.5H126V237ZM126 197.5H166V196.5H126V197.5ZM165.5 197V237H166.5V197H165.5ZM166 236.5H126V237.5H166V236.5ZM126.5 237V197H125.5V237H126.5Z" fill="#DFDFDF"/>
<path d="M166 197H206V237H166V197Z" fill="#FCFCFC" fill-opacity="0.05"/>
<path d="M183.274 221V220.233L186.155 217.08C186.493 216.71 186.771 216.389 186.99 216.116C187.209 215.841 187.371 215.582 187.476 215.341C187.584 215.097 187.638 214.841 187.638 214.574C187.638 214.267 187.564 214.001 187.416 213.777C187.271 213.553 187.073 213.379 186.82 213.257C186.567 213.135 186.283 213.074 185.968 213.074C185.632 213.074 185.34 213.143 185.09 213.283C184.843 213.419 184.651 213.611 184.514 213.858C184.381 214.105 184.314 214.395 184.314 214.727H183.308C183.308 214.216 183.426 213.767 183.662 213.381C183.898 212.994 184.219 212.693 184.625 212.477C185.034 212.261 185.493 212.153 186.002 212.153C186.513 212.153 186.966 212.261 187.361 212.477C187.756 212.693 188.066 212.984 188.29 213.351C188.514 213.717 188.627 214.125 188.627 214.574C188.627 214.895 188.568 215.209 188.452 215.516C188.338 215.82 188.139 216.159 187.855 216.534C187.574 216.906 187.183 217.361 186.683 217.898L184.723 219.994V220.062H188.78V221H183.274Z" fill="#747474"/>
<path d="M166 197V196.5H165.5V197H166ZM206 197H206.5V196.5H206V197ZM206 237V237.5H206.5V237H206ZM166 237H165.5V237.5H166V237ZM166 197.5H206V196.5H166V197.5ZM205.5 197V237H206.5V197H205.5ZM206 236.5H166V237.5H206V236.5ZM166.5 237V197H165.5V237H166.5Z" fill="#DFDFDF"/>
<path d="M206 197H246V237H206V197Z" fill="#FCFCFC" fill-opacity="0.05"/>
<path d="M226.036 221.119C225.473 221.119 224.972 221.023 224.531 220.83C224.094 220.636 223.746 220.368 223.487 220.024C223.232 219.678 223.093 219.276 223.07 218.818H224.144C224.166 219.099 224.263 219.342 224.433 219.547C224.604 219.749 224.827 219.905 225.102 220.016C225.378 220.126 225.683 220.182 226.019 220.182C226.394 220.182 226.726 220.116 227.016 219.986C227.306 219.855 227.533 219.673 227.698 219.44C227.862 219.207 227.945 218.938 227.945 218.631C227.945 218.31 227.865 218.027 227.706 217.783C227.547 217.536 227.314 217.342 227.007 217.203C226.7 217.064 226.325 216.994 225.882 216.994H225.183V216.057H225.882C226.229 216.057 226.533 215.994 226.794 215.869C227.058 215.744 227.264 215.568 227.412 215.341C227.563 215.114 227.638 214.847 227.638 214.54C227.638 214.244 227.573 213.987 227.442 213.768C227.311 213.55 227.127 213.379 226.888 213.257C226.652 213.135 226.374 213.074 226.053 213.074C225.752 213.074 225.468 213.129 225.2 213.24C224.936 213.348 224.72 213.506 224.553 213.713C224.385 213.918 224.294 214.165 224.28 214.455H223.257C223.274 213.997 223.412 213.597 223.671 213.253C223.929 212.906 224.267 212.636 224.685 212.443C225.105 212.25 225.567 212.153 226.07 212.153C226.61 212.153 227.073 212.263 227.459 212.482C227.845 212.697 228.142 212.983 228.35 213.338C228.557 213.693 228.661 214.077 228.661 214.489C228.661 214.98 228.531 215.399 228.273 215.746C228.017 216.092 227.669 216.332 227.229 216.466V216.534C227.78 216.625 228.21 216.859 228.52 217.237C228.83 217.612 228.985 218.077 228.985 218.631C228.985 219.105 228.855 219.531 228.597 219.909C228.341 220.284 227.992 220.58 227.548 220.795C227.105 221.011 226.601 221.119 226.036 221.119Z" fill="#747474"/>
<path d="M206 197V196.5H205.5V197H206ZM246 197H246.5V196.5H246V197ZM246 237V237.5H246.5V237H246ZM206 237H205.5V237.5H206V237ZM206 197.5H246V196.5H206V197.5ZM245.5 197V237H246.5V197H245.5ZM246 236.5H206V237.5H246V236.5ZM206.5 237V197H205.5V237H206.5Z" fill="#DFDFDF"/>
<path d="M246 197H286V237H246V197Z" fill="#FCFCFC" fill-opacity="0.05"/>
<path d="M262.814 219.21V218.341L266.649 212.273H267.28V213.619H266.854L263.956 218.205V218.273H269.121V219.21H262.814ZM266.922 221V218.946V218.541V212.273H267.928V221H266.922Z" fill="#747474"/>
<path d="M246 197V196.5H245.5V197H246ZM286 197H286.5V196.5H286V197ZM286 237V237.5H286.5V237H286ZM246 237H245.5V237.5H246V237ZM246 197.5H286V196.5H246V197.5ZM285.5 197V237H286.5V197H285.5ZM286 236.5H246V237.5H286V236.5ZM246.5 237V197H245.5V237H246.5Z" fill="#DFDFDF"/>
</svg>
